<svg width="43" height="32" viewBox="0 0 43 32" fill="none" xmlns="http://www.w3.org/2000/svg">
<rect width="43" height="32" fill="white"/>
<path d="M17.7752 20.1782H19.6477V25.7921H5V24.2178L7.86913 23.5644L7.47651 24.1881V6.69307L7.86913 7.31683L5 6.72277V5.14851L13.3356 5V6.57426L10.1946 7.31683L10.557 6.69307V24.0693L10.0436 23.5644H17.6544L17.1711 24.099L17.7752 20.1782Z" fill="#081546"/>
<path d="M20.9396 26V24.4257L23.8389 23.7723L23.4161 24.396V6.90099L23.9899 7.55445L20.9396 6.93069V5.35643L26.6174 5.20792H29.9396C32.2752 5.20792 34.0369 5.68317 35.2248 6.63366C36.4128 7.58416 37.0067 8.9604 37.0067 10.7624C37.0067 12.3861 36.4832 13.7228 35.4362 14.7723C34.4094 15.8218 32.8188 16.4653 30.6644 16.703V16.3465C31.4497 16.4059 32.0839 16.5644 32.5671 16.8218C33.0705 17.0594 33.4933 17.396 33.8356 17.8317C34.1779 18.2475 34.5 18.7624 34.802 19.3762L37.3087 24.2772L36.3725 23.6832L39 24.4257V26H34.8624L32.1141 20.1782C31.7315 19.3663 31.3792 18.7426 31.057 18.3069C30.7349 17.8515 30.3423 17.5347 29.8792 17.3564C29.4161 17.1782 28.7416 17.0891 27.8557 17.0891L25.953 17.1188L26.4966 16.6436V24.396L26.0436 23.7426L29.396 24.4257V26H20.9396ZM26.4966 15.7228L25.953 14.9505H28.7013C30.3725 14.9505 31.6409 14.6139 32.5067 13.9406C33.3926 13.2673 33.8356 12.2673 33.8356 10.9406C33.8356 9.81188 33.4732 8.95049 32.7483 8.35643C32.0436 7.74257 30.9866 7.43564 29.5772 7.43564H25.953L26.4966 6.90099V15.7228Z" fill="#081546"/>
</svg>
