<svg width="24" height="24" viewBox="0 0 24 24" fill="none" xmlns="http://www.w3.org/2000/svg">
<g clip-path="url(#clip0_56_156)">
<path d="M12 -6.10352e-05C8.73997 -6.10352e-05 8.33302 0.014939 7.053 0.071939C5.775 0.131939 4.905 0.332939 4.14 0.629939C3.351 0.935939 2.681 1.34694 2.014 2.01394C1.347 2.68094 0.935003 3.34994 0.63 4.13994C0.333 4.90494 0.131 5.77494 0.072 7.05294C0.012 8.33296 0 8.73991 0 11.9999C0 15.26 0.015 15.6669 0.072 16.9469C0.132 18.224 0.333 19.0949 0.63 19.8599C0.936 20.648 1.347 21.3189 2.014 21.986C2.681 22.652 3.35 23.0649 4.14 23.3699C4.906 23.666 5.776 23.8689 7.053 23.9279C8.33302 23.9879 8.73997 23.9999 12 23.9999C15.26 23.9999 15.667 23.9849 16.947 23.9279C18.224 23.8679 19.095 23.666 19.86 23.3699C20.648 23.0639 21.319 22.652 21.986 21.986C22.652 21.3189 23.065 20.651 23.37 19.8599C23.666 19.0949 23.869 18.224 23.928 16.9469C23.988 15.6669 24 15.26 24 11.9999C24 8.73991 23.985 8.33296 23.928 7.05294C23.868 5.77594 23.666 4.90394 23.37 4.13994C23.064 3.35094 22.652 2.68094 21.986 2.01394C21.319 1.34694 20.651 0.934941 19.86 0.629939C19.095 0.332939 18.224 0.130939 16.947 0.071939C15.667 0.011939 15.26 -6.10352e-05 12 -6.10352e-05ZM12 2.15994C15.203 2.15994 15.585 2.17594 16.85 2.23094C18.02 2.28594 18.655 2.47994 19.077 2.64594C19.639 2.86294 20.037 3.12294 20.459 3.54194C20.878 3.96194 21.138 4.36094 21.355 4.92294C21.519 5.34494 21.715 5.97994 21.768 7.14994C21.825 8.41591 21.838 8.79594 21.838 11.9999C21.838 15.2039 21.823 15.5849 21.764 16.85C21.703 18.02 21.508 18.6549 21.343 19.0769C21.119 19.6389 20.864 20.0369 20.444 20.459C20.025 20.8779 19.62 21.1379 19.064 21.3549C18.644 21.5189 17.999 21.7149 16.829 21.7679C15.555 21.8249 15.18 21.8379 11.97 21.8379C8.75902 21.8379 8.38402 21.8229 7.111 21.764C5.94 21.7029 5.295 21.5079 4.875 21.3429C4.306 21.119 3.915 20.864 3.496 20.444C3.075 20.0249 2.806 19.6199 2.596 19.064C2.431 18.644 2.237 17.999 2.176 16.829C2.131 15.569 2.115 15.1799 2.115 11.9849C2.115 8.78896 2.131 8.39896 2.176 7.12394C2.237 5.95394 2.431 5.30994 2.596 4.88994C2.806 4.31994 3.075 3.92994 3.496 3.50894C3.915 3.08994 4.306 2.81994 4.875 2.61094C5.295 2.44494 5.926 2.24994 7.096 2.18994C8.37098 2.14494 8.74597 2.12994 11.955 2.12994L12 2.15994ZM12 5.83794C8.595 5.83794 5.838 8.59794 5.838 11.9999C5.838 15.4049 8.598 18.1619 12 18.1619C15.405 18.1619 18.162 15.4019 18.162 11.9999C18.162 8.59494 15.402 5.83794 12 5.83794ZM12 15.9999C9.78998 15.9999 8.00002 14.21 8.00002 11.9999C8.00002 9.78991 9.78998 7.99996 12 7.99996C14.21 7.99996 16 9.78991 16 11.9999C16 14.21 14.21 15.9999 12 15.9999ZM19.846 5.59494C19.846 6.38994 19.2 7.03494 18.406 7.03494C17.611 7.03494 16.966 6.38894 16.966 5.59494C16.966 4.80094 17.612 4.15594 18.406 4.15594C19.199 4.15494 19.846 4.80094 19.846 5.59494Z" fill="#0F2D95"/>
</g>
<defs>
<clipPath id="clip0_56_156">
<rect width="24" height="24" fill="white"/>
</clipPath>
</defs>
</svg>
