<svg width="501" height="364" fill="none" xmlns="http://www.w3.org/2000/svg"><g clip-path="url(#a)"><path d="M291.528 64.169c9.38 0 16.983-7.604 16.983-16.984 0-9.38-7.603-16.984-16.983-16.984s-16.984 7.604-16.984 16.984c0 9.38 7.604 16.984 16.984 16.984ZM423.276 316.227c25.244-19.228 37.302-51.539 29.753-82.361a83.803 83.803 0 0 0-.594-2.292c-5.004-18.296-17.385-35.684-35.429-41.53-15.151-4.909-31.689-1.134-47.496-3.086-31.028-3.832-55.084-28.938-72.011-55.224-16.926-26.286-29.935-55.71-52.426-77.426-37.074-35.795-97.55-43.502-143.516-20.202-45.966 23.3-75.246 74.994-73.997 126.513 1.249 51.519 31.833 100.774 76.25 126.908 16.316 9.6 35.188 16.401 53.97 14.021 16.296-2.065 31.103-10.821 47.323-13.421 25.501-4.087 50.84 7.443 72.896 20.879 22.056 13.435 43.361 29.361 68.426 35.59 24.337 6.048 54.488-11.336 76.851-28.369Z" fill="#F2F2F2"/><path d="M0 276.242a183.793 183.793 0 0 0 17.887 18.415l464.705.636a183.911 183.911 0 0 0 17.886-18.414L0 276.242ZM315.132 217.278v54.515a2.624 2.624 0 0 0 2.62 2.62h80.784a2.624 2.624 0 0 0 2.62-2.62v-54.515a2.623 2.623 0 0 0-2.62-2.617h-80.784a2.622 2.622 0 0 0-2.62 2.617Z" fill="#404040"/><path d="M317.027 217.957v53.163a1.4 1.4 0 0 0 1.4 1.4h79.437a1.4 1.4 0 0 0 1.4-1.4v-53.163a1.4 1.4 0 0 0-.41-.991 1.399 1.399 0 0 0-.99-.413h-79.437a1.399 1.399 0 0 0-.99.413 1.4 1.4 0 0 0-.41.991Z" fill="#0F2D95"/><path d="M313.442 282.424a1.563 1.563 0 0 0 1.236.592h86.501a1.584 1.584 0 0 0 1.235-.589c.149-.184.255-.398.31-.628.056-.23.06-.47.011-.701l-1.342-6.378a1.604 1.604 0 0 0-.992-1.157 1.551 1.551 0 0 0-.564-.106h-83.821a1.603 1.603 0 0 0-1.208.558 1.592 1.592 0 0 0-.348.705l-1.343 6.378a1.591 1.591 0 0 0 .325 1.326Z" fill="#081546"/><path d="M396.869 276.204h2.043a.31.31 0 0 0 .31-.311v-.977a.31.31 0 0 0-.31-.311h-2.043a.31.31 0 0 0-.311.311v.977a.31.31 0 0 0 .311.311ZM391.54 276.204h2.043a.31.31 0 0 0 .311-.311v-.977a.31.31 0 0 0-.311-.311h-2.043a.31.31 0 0 0-.31.311v.977a.31.31 0 0 0 .31.311ZM386.212 276.204h2.043a.31.31 0 0 0 .311-.311v-.977a.31.31 0 0 0-.311-.311h-2.043a.311.311 0 0 0-.311.311v.977c0 .172.14.311.311.311ZM380.884 276.204h2.043a.31.31 0 0 0 .31-.311v-.977a.31.31 0 0 0-.31-.311h-2.043a.31.31 0 0 0-.311.311v.977a.31.31 0 0 0 .311.311ZM375.555 276.204h2.043a.31.31 0 0 0 .311-.311v-.977a.31.31 0 0 0-.311-.311h-2.043a.311.311 0 0 0-.311.311v.977c0 .172.14.311.311.311ZM370.227 276.204h2.043a.31.31 0 0 0 .31-.311v-.977a.31.31 0 0 0-.31-.311h-2.043a.31.31 0 0 0-.311.311v.977a.31.31 0 0 0 .311.311ZM364.899 276.204h2.043a.31.31 0 0 0 .31-.311v-.977a.31.31 0 0 0-.31-.311h-2.043a.31.31 0 0 0-.311.311v.977a.31.31 0 0 0 .311.311ZM359.57 276.204h2.043a.31.31 0 0 0 .311-.311v-.977a.31.31 0 0 0-.311-.311h-2.043a.31.31 0 0 0-.31.311v.977a.31.31 0 0 0 .31.311ZM354.242 276.204h2.043a.31.31 0 0 0 .31-.311v-.977a.31.31 0 0 0-.31-.311h-2.043a.31.31 0 0 0-.311.311v.977a.31.31 0 0 0 .311.311ZM348.913 276.204h2.043a.31.31 0 0 0 .311-.311v-.977a.31.31 0 0 0-.311-.311h-2.043a.31.31 0 0 0-.31.311v.977a.31.31 0 0 0 .31.311ZM343.585 276.204h2.043a.31.31 0 0 0 .31-.311v-.977a.31.31 0 0 0-.31-.311h-2.043a.31.31 0 0 0-.311.311v.977a.31.31 0 0 0 .311.311ZM338.256 276.204h2.043a.31.31 0 0 0 .311-.311v-.977a.31.31 0 0 0-.311-.311h-2.043a.31.31 0 0 0-.31.311v.977a.31.31 0 0 0 .31.311ZM332.928 276.204h2.043a.31.31 0 0 0 .31-.311v-.977a.31.31 0 0 0-.31-.311h-2.043a.31.31 0 0 0-.311.311v.977a.31.31 0 0 0 .311.311ZM327.599 276.204h2.044a.31.31 0 0 0 .31-.311v-.977a.31.31 0 0 0-.31-.311h-2.044a.31.31 0 0 0-.31.311v.977a.31.31 0 0 0 .31.311ZM322.271 276.204h2.043a.31.31 0 0 0 .311-.311v-.977a.31.31 0 0 0-.311-.311h-2.043a.31.31 0 0 0-.311.311v.977a.31.31 0 0 0 .311.311ZM316.943 276.204h2.043a.31.31 0 0 0 .31-.311v-.977a.31.31 0 0 0-.31-.311h-2.043a.31.31 0 0 0-.311.311v.977a.31.31 0 0 0 .311.311ZM396.932 278.868h2.043a.31.31 0 0 0 .31-.31v-.978a.31.31 0 0 0-.31-.31h-2.043a.31.31 0 0 0-.311.31v.978c0 .171.139.31.311.31ZM391.603 278.868h2.044a.31.31 0 0 0 .31-.31v-.978a.31.31 0 0 0-.31-.31h-2.044a.31.31 0 0 0-.31.31v.978c0 .171.139.31.31.31ZM386.275 278.868h2.043a.31.31 0 0 0 .31-.31v-.978a.31.31 0 0 0-.31-.31h-2.043a.31.31 0 0 0-.311.31v.978c0 .171.139.31.311.31ZM380.946 278.868h2.044a.31.31 0 0 0 .31-.31v-.978a.31.31 0 0 0-.31-.31h-2.044a.31.31 0 0 0-.31.31v.978c0 .171.139.31.31.31ZM375.618 278.868h2.043a.31.31 0 0 0 .311-.31v-.978a.31.31 0 0 0-.311-.31h-2.043a.311.311 0 0 0-.311.31v.978c0 .171.14.31.311.31ZM370.29 278.868h2.043a.31.31 0 0 0 .31-.31v-.978a.31.31 0 0 0-.31-.31h-2.043a.31.31 0 0 0-.311.31v.978c0 .171.139.31.311.31ZM364.961 278.868h2.043a.31.31 0 0 0 .311-.31v-.978a.31.31 0 0 0-.311-.31h-2.043a.311.311 0 0 0-.311.31v.978c0 .171.14.31.311.31ZM359.633 278.868h2.043a.31.31 0 0 0 .311-.31v-.978a.31.31 0 0 0-.311-.31h-2.043a.31.31 0 0 0-.311.31v.978c0 .171.139.31.311.31ZM354.305 278.868h2.043a.31.31 0 0 0 .31-.31v-.978a.31.31 0 0 0-.31-.31h-2.043a.31.31 0 0 0-.311.31v.978c0 .171.139.31.311.31ZM348.976 278.868h2.043a.31.31 0 0 0 .311-.31v-.978a.31.31 0 0 0-.311-.31h-2.043a.31.31 0 0 0-.31.31v.978c0 .171.139.31.31.31ZM343.648 278.868h2.043a.31.31 0 0 0 .31-.31v-.978a.31.31 0 0 0-.31-.31h-2.043a.31.31 0 0 0-.311.31v.978c0 .171.139.31.311.31ZM338.319 278.868h2.043a.31.31 0 0 0 .311-.31v-.978a.31.31 0 0 0-.311-.31h-2.043a.31.31 0 0 0-.31.31v.978c0 .171.139.31.31.31ZM332.991 278.868h2.043a.31.31 0 0 0 .311-.31v-.978a.31.31 0 0 0-.311-.31h-2.043a.31.31 0 0 0-.31.31v.978c0 .171.139.31.31.31ZM327.663 278.868h2.043a.31.31 0 0 0 .31-.31v-.978a.31.31 0 0 0-.31-.31h-2.043a.31.31 0 0 0-.311.31v.978c0 .171.139.31.311.31ZM322.334 278.868h2.043a.31.31 0 0 0 .311-.31v-.978a.31.31 0 0 0-.311-.31h-2.043a.31.31 0 0 0-.31.31v.978c0 .171.139.31.31.31ZM317.006 278.868h2.043a.31.31 0 0 0 .31-.31v-.978a.31.31 0 0 0-.31-.31h-2.043a.31.31 0 0 0-.311.31v.978c0 .171.139.31.311.31ZM352.706 282.065h20.693a.31.31 0 0 0 .31-.31v-.978a.31.31 0 0 0-.31-.31h-20.693a.31.31 0 0 0-.31.31v.978c0 .171.139.31.31.31Z" fill="#404040"/><path d="M330.783 228.184h-1.809a.994.994 0 0 0 0 1.986h1.809a.993.993 0 1 0 0-1.986ZM351.47 228.184h-1.809a.994.994 0 0 0 0 1.986h1.809a.993.993 0 1 0 0-1.986ZM357.331 228.184h-1.808a.993.993 0 1 0 0 1.986h1.808a.992.992 0 1 0 0-1.986ZM345.843 228.019h-11.242a.993.993 0 1 0 0 1.986h11.242a.993.993 0 1 0 0-1.986ZM373.426 228.019h-11.242a.992.992 0 1 0 0 1.986h11.242a.994.994 0 0 0 0-1.986ZM336.299 232.667h-1.808a.992.992 0 1 0 0 1.986h1.808a.993.993 0 1 0 0-1.986ZM356.987 232.667h-1.809a.992.992 0 1 0 0 1.986h1.809a.994.994 0 0 0 0-1.986ZM362.848 232.667h-1.809a.993.993 0 1 0 0 1.986h1.809a.994.994 0 0 0 0-1.986ZM351.359 232.501h-11.242a.993.993 0 0 0 0 1.986h11.242a.993.993 0 1 0 0-1.986ZM378.942 232.501H367.7a.994.994 0 0 0 0 1.986h11.242a.993.993 0 1 0 0-1.986ZM341.816 237.149h-1.809a.993.993 0 1 0 0 1.986h1.809a.994.994 0 0 0 0-1.986ZM362.503 237.149h-1.809a.993.993 0 1 0 0 1.986h1.809a.993.993 0 1 0 0-1.986ZM368.364 237.149h-1.809a.993.993 0 1 0 0 1.986h1.809a.993.993 0 1 0 0-1.986ZM356.876 236.983h-11.242a.994.994 0 0 0 0 1.986h11.242a.993.993 0 1 0 0-1.986ZM384.459 236.983h-11.242a.994.994 0 0 0 0 1.986h11.242a.992.992 0 1 0 0-1.986ZM347.333 241.631h-1.809a.993.993 0 1 0 0 1.986h1.809a.993.993 0 0 0 0-1.986ZM368.02 241.631h-1.809a.994.994 0 0 0 0 1.986h1.809a.994.994 0 0 0 0-1.986ZM373.881 241.631h-1.809a.994.994 0 0 0 0 1.986h1.809a.994.994 0 0 0 0-1.986ZM362.393 241.465h-11.242a.993.993 0 1 0 0 1.986h11.242a.993.993 0 1 0 0-1.986ZM351.47 259.454h-1.809a.994.994 0 0 0 0 1.986h1.809a.994.994 0 0 0 0-1.986ZM357.331 259.454h-1.808a.993.993 0 1 0 0 1.986h1.808a.993.993 0 1 0 0-1.986ZM373.426 259.62h-11.242a.992.992 0 1 0 0 1.986h11.242a.994.994 0 0 0 0-1.986ZM330.783 259.454h-1.809a.994.994 0 0 0 0 1.986h1.809a.994.994 0 0 0 0-1.986ZM345.843 259.62h-11.242a.993.993 0 1 0 0 1.986h11.242a.993.993 0 1 0 0-1.986ZM336.299 254.972h-1.808a.993.993 0 1 0 0 1.986h1.808a.993.993 0 1 0 0-1.986ZM356.987 254.972h-1.809a.993.993 0 1 0 0 1.986h1.809a.994.994 0 0 0 0-1.986ZM362.848 254.972h-1.809a.994.994 0 0 0 0 1.986h1.809a.994.994 0 0 0 0-1.986ZM351.359 255.138h-11.242a.992.992 0 0 0 0 1.985h11.242a.992.992 0 1 0 0-1.985ZM341.816 250.49h-1.809a.993.993 0 1 0 0 1.986h1.809a.994.994 0 0 0 0-1.986ZM362.503 250.49h-1.809a.993.993 0 1 0 0 1.986h1.809a.993.993 0 1 0 0-1.986ZM368.364 250.49h-1.809a.993.993 0 1 0 0 1.986h1.809a.993.993 0 1 0 0-1.986ZM356.876 250.655h-11.242a.994.994 0 0 0 0 1.986h11.242a.993.993 0 1 0 0-1.986ZM347.333 246.008h-1.809a.992.992 0 1 0 0 1.986h1.809a.993.993 0 0 0 0-1.986ZM368.02 246.008h-1.809a.993.993 0 1 0 0 1.986h1.809a.994.994 0 0 0 0-1.986ZM373.881 246.008h-1.809a.993.993 0 1 0 0 1.986h1.809a.994.994 0 0 0 0-1.986ZM362.393 246.173h-11.242a.993.993 0 1 0 0 1.986h11.242a.994.994 0 0 0 0-1.986Z" fill="#fff"/><path d="m321.166 311.984-8.491-13.422 26.653-21.247 11.001-12.188a12.194 12.194 0 0 1 11.559-3.76 12.188 12.188 0 0 1 1.702 23.363l-17.396 6.409-25.028 20.845Z" fill="#FFB6B6"/><path d="M121.93 214.664V279.9h45.702v-65.236a2.191 2.191 0 0 0-1.546-2.099 2.02 2.02 0 0 0-.655-.102h-41.294a2.2 2.2 0 0 0-2.207 2.201Zm17.835 22.415a4.88 4.88 0 0 1 9.758 0v7.569a4.88 4.88 0 0 1-8.32 3.434 4.88 4.88 0 0 1-1.438-3.434v-7.569Z" fill="#081546"/><path d="M121.79 277.813v6.291a1.236 1.236 0 0 0 1.227 1.234h43.527a1.23 1.23 0 0 0 1.228-1.234v-6.291H121.79ZM50.034 116.377v119.112a5.73 5.73 0 0 0 5.724 5.725H232.27a5.736 5.736 0 0 0 4.047-1.678 5.736 5.736 0 0 0 1.678-4.047V116.377a5.732 5.732 0 0 0-5.725-5.718H55.758a5.732 5.732 0 0 0-5.724 5.718Z" fill="#404040"/><path d="M54.175 117.859V234.02a3.062 3.062 0 0 0 3.06 3.059H230.8a3.06 3.06 0 0 0 2.162-.898c.574-.573.897-1.35.898-2.161V117.859a3.067 3.067 0 0 0-3.06-3.066H57.234a3.067 3.067 0 0 0-3.06 3.066Z" fill="#fff"/><path d="M86.386 284.912c.176.222.4.4.657.522.255.123.535.186.818.184h103.261a1.902 1.902 0 0 0 1.858-2.29l-1.603-7.614a1.908 1.908 0 0 0-1.858-1.507H89.458a1.904 1.904 0 0 0-1.857 1.507l-1.603 7.614a1.9 1.9 0 0 0 .388 1.584Z" fill="#081546"/><path d="M225.168 130.795H62.762a.65.65 0 0 1-.631-.646.647.647 0 0 1 .631-.646h162.406a.648.648 0 0 1 .631.646.647.647 0 0 1-.631.646ZM73.817 126.206c2.09 0 3.786-1.733 3.786-3.87s-1.695-3.869-3.785-3.869-3.785 1.732-3.785 3.869c0 2.137 1.694 3.87 3.784 3.87ZM86.893 126.206c2.09 0 3.785-1.733 3.785-3.87s-1.695-3.869-3.785-3.869-3.785 1.732-3.785 3.869c0 2.137 1.694 3.87 3.785 3.87ZM99.968 126.206c2.09 0 3.785-1.733 3.785-3.87s-1.695-3.869-3.785-3.869-3.785 1.732-3.785 3.869c0 2.137 1.695 3.87 3.785 3.87ZM217.294 119.424h-9.286a.701.701 0 0 0-.687.703.704.704 0 0 0 .687.703h9.286a.704.704 0 0 0 0-1.406ZM217.295 122.064h-9.287a.703.703 0 0 0 0 1.405h9.287a.704.704 0 0 0 .694-.702.702.702 0 0 0-.694-.703ZM217.294 124.703h-9.286a.704.704 0 0 0 0 1.406h9.286a.703.703 0 0 0 0-1.406Z" fill="#404040"/><path d="M441.18 280.574a4.08 4.08 0 0 0 3.933 2.755l16.851-.433a4.027 4.027 0 0 0 3.804-2.963l2.385-25.498a6.243 6.243 0 0 0 2.696.554 6.153 6.153 0 0 0 4.298-1.909 6.151 6.151 0 0 0 1.164-6.728 6.131 6.131 0 0 0-3.408-3.241 6.151 6.151 0 0 0-2.363-.409 5.187 5.187 0 0 0-1.104.115 4.164 4.164 0 0 0-3.1-1.338l-25.921.669a3.71 3.71 0 0 0-.639.08 4.038 4.038 0 0 0-2.746 1.923 4.06 4.06 0 0 0-.354 3.334l4.504 33.089Zm27.462-27.87 1.697-6.077a4.143 4.143 0 0 0 .013-2.146c.082 0 .155-.039.237-.04a4.398 4.398 0 0 1 4.485 4.292 4.394 4.394 0 0 1-4.279 4.497 4.133 4.133 0 0 1-2.153-.526Z" fill="#081546"/><path d="M439.776 242.228c.552 3.157 6.761 5.377 14.226 4.991 6.865-.316 12.478-2.727 13.507-5.584a3.853 3.853 0 0 0-1.174-.156l-25.92.669a3.71 3.71 0 0 0-.639.08Z" fill="#404040"/><path d="M455.37 266.563a.308.308 0 0 0 .096-.043l3.66-2.395a.317.317 0 0 0 0-.532l-3.804-2.491a.321.321 0 0 0-.354.002.32.32 0 0 0-.083.443.308.308 0 0 0 .089.087l3.397 2.225-3.253 2.129a.322.322 0 0 0-.131.176.32.32 0 0 0 .165.376.322.322 0 0 0 .218.023ZM449.59 266.829a.312.312 0 0 0 .159-.096.307.307 0 0 0 .078-.169.32.32 0 0 0-.156-.319l-3.374-1.934 3.261-2.421a.33.33 0 0 0 .125-.209.305.305 0 0 0-.007-.124.312.312 0 0 0-.145-.195.323.323 0 0 0-.352.017l-3.651 2.712a.313.313 0 0 0-.098.121.309.309 0 0 0 .018.301.316.316 0 0 0 .112.109l3.794 2.175a.314.314 0 0 0 .236.032ZM455.006 268.662a.32.32 0 0 0 .237-.358.326.326 0 0 0-.043-.116l-5.188-8.529a.32.32 0 0 0-.58.091.316.316 0 0 0 .037.24l5.188 8.529a.317.317 0 0 0 .349.143ZM163.37 165.906h-28.109c-1.147 0-2.076.93-2.076 2.076v2.747c0 1.146.929 2.076 2.076 2.076h28.109c1.146 0 2.076-.93 2.076-2.076v-2.747c0-1.146-.93-2.076-2.076-2.076Z" fill="#0F2D95"/><path d="M179.754 179.704h-60.877a2.076 2.076 0 0 0-2.077 2.076v2.746c0 1.147.93 2.076 2.077 2.076h60.877a2.075 2.075 0 0 0 2.076-2.076v-2.746a2.075 2.075 0 0 0-2.076-2.076ZM179.754 193.501h-60.877c-1.147 0-2.077.93-2.077 2.076v2.746c0 1.147.93 2.077 2.077 2.077h60.877c1.147 0 2.076-.93 2.076-2.077v-2.746a2.076 2.076 0 0 0-2.076-2.076Z" fill="#E6E6E6"/><path d="m184.915 239.703.137.435.008.015 4.15 12.618 4.775 14.542 8.983 27.326.087 4.245v.015l.667 34.147-1.85 4.63 2.083 7.59s-.958-11.473-6.095-4.885c-2.91 3.744-6.313 7.576-9.107 11.168a170.376 170.376 0 0 0 12.408 4.469c.907.291 1.821.566 2.736.842l.587.174a169.72 169.72 0 0 0 42.841 6.886c.754.022 1.495.036 2.213.051.254.007.501.015.747.015.813.007 1.618.014 2.431.014 1.64 0 3.273-.024 4.898-.072 12.03-.34 23.99-1.957 35.678-4.826-.079-4.825-.297-10.463-.609-16.486-.145-2.953-3.403-6.153-3.599-9.244-.138-2.322 2.786-4.506 2.634-6.865-.987-14.519-2.22-8.945-3.135-19.227a459.198 459.198 0 0 1-.261-2.896c-.588-6.603-.994-10.731-.994-10.731l3.904-24.606 6.131-38.632-.471-.776-.53-.261-32.341-16.008-1.756-4.498a6.978 6.978 0 0 0-6.451-4.419l-21.304-.087a6.955 6.955 0 0 0-5.667 2.88l-5.768 7.989-38.16 24.468Z" fill="#404040"/><path d="m207.881 288.559-4.826 10.325-3.294 7.053-5.667 29.671-2.837 3.011-2.431-10.66-25.442 5.649c-.834-4.637-.223.157-.738-4.93.145-.145.297-.29.45-.435.406-.378.747-.733.74-1.074-.29-17.546.58-47.405 7.851-65.494a38.187 38.187 0 0 1 4.47-8.338c.145-.196.283-.392.421-.587 3.352-4.695 5.471-9.317 8.475-12.604v-.008a.48.48 0 0 0 .051-.05.148.148 0 0 0 .029-.022l20.636-10.942.885 24.874.632 17.879.595 16.682ZM282.292 291.491l6.027 12.897 2.104 4.491 5.665 29.668 2.828 3.004 2.437-10.658 1.144-.235 20.647-4.276 6.017 19.112a11.435 11.435 0 0 0-2.074-14.315c-.411-.372-.754-.734-.744-1.076.343-20.637-.92-58.318-12.319-73.827-3.62-4.922-5.793-9.824-8.953-13.249-.01-.01-.01-.02-.02-.02l-7.691-12.593-.469-.773-.529-.264-14.07 62.114Z" fill="#404040"/><path d="M245.778 198.303c15.653 0 28.342-12.69 28.342-28.343s-12.689-28.342-28.342-28.342c-15.653 0-28.343 12.689-28.343 28.342 0 15.653 12.69 28.343 28.343 28.343Z" fill="#FFB6B6"/><path d="M284.086 150.163a2.388 2.388 0 0 0-1.711-.757l.426-1.183a2.246 2.246 0 0 0-1.35-2.899 2.256 2.256 0 0 0-1.169-.091l-1.552.299.147-1.036a2.254 2.254 0 0 0-.813-2.072 2.237 2.237 0 0 0-2.196-.358 2.384 2.384 0 0 1-2.061-.147 2.442 2.442 0 0 1-1.221-1.66l-.541-2.608-.057-.14c-2.633-4.389-7.697-7.582-13.892-8.752-5.515-1.05-11.17-.515-16.621-.013-2.162.204-4.605.433-6.64 1.679-1.73 1.069-3.193 3.206-2.895 5.363-5.374-1.648-11.137 1.641-13.993 5.788-3.384 4.936-3.938 11.119-4.027 15.953-.241 11.436 2.119 20.793 6.997 27.815.356.509.446 1.572 1.152 1.928l-.147-.236c.789.395 1.59 1.031 1.291 1.711-.858 1.96 4.847 6.291 8.867 7.722 7.334 2.615 17.085 2.392 23.942 1.451l.242-1.622c2.474-.337 4.217-.98 4.707-1.985a55.707 55.707 0 0 0 2.245-2.01l.007-.006c.012-.013.038-.032.051-.045 3.097-2.97 3.816-4.662 4.14-7.238.312-2.526-.241-5.089-.807-7.398 11.92 1.845-4.695-12.696 6.411-15.507a3.28 3.28 0 0 1 .388-.096c.325-.076.649-.153.961-.242a16.802 16.802 0 0 0 4.274-1.825c3.104-1.889 4.128-4.395 5.731-7.22a2.178 2.178 0 0 0-.286-2.563ZM346.021 293.509a212.463 212.463 0 0 1-.07 4.599l-.019.821a550.587 550.587 0 0 1-.299 9.814c-.006.229-.013.452-.026.681-.178 4.605-.457 9.967-.941 18.459-.897 15.686-2.462 2.156-4.033 7.658-.076.274-.159.598-.235.98a17.727 17.727 0 0 1-1.196 4.026c-.833.496-1.692.973-2.538 1.45a176.36 176.36 0 0 1-11.506 5.871c-.223.102-.439.204-.655.299a172.316 172.316 0 0 1-22.104 8.435c-1.476.445-2.945.878-4.434 1.278-1.552.433-3.104.84-4.675 1.222a169.776 169.776 0 0 1-35.677 4.827c-1.622.051-3.257.07-4.898.07-.814 0-1.616-.006-2.43-.012-.248 0-.496-.007-.744-.013-.719-.019-1.463-.032-2.214-.051a169.612 169.612 0 0 1-42.839-6.889l-.592-.171c-.916-.28-1.826-.554-2.735-.846a170.174 170.174 0 0 1-12.41-4.466 172.702 172.702 0 0 1-9.223-4.032.211.211 0 0 1-.076-.039 80.982 80.982 0 0 1-1.915-.909c-.083-.045-.172-.089-.261-.134a171.601 171.601 0 0 1-7.041-3.638c-1.953-4.484-4.701-5.343-6.406-9.287a16.464 16.464 0 0 1-1.068-3.651c0-.013-.007-.025-.007-.044.179 2.366-.756-4.199-.006-.026-.006-.076-.013-.159-.019-.254a29.681 29.681 0 0 0-.083-.859c-2.181-21.302-2.041-45.664-2.989-65.739a527.25 527.25 0 0 0-.197-3.727c-.019-.394-.045-.782-.07-1.164.044-.114.095-.235.152-.35a.55.55 0 0 1 .045-.095c.019-.04.04-.078.063-.115l.045-.063a.546.546 0 0 1 .032-.064c.057-.089.121-.184.191-.273.031-.039.057-.071.089-.102a.464.464 0 0 1 .076-.089.372.372 0 0 1 .07-.083c.025-.025.051-.057.083-.089a.177.177 0 0 1 .051-.051 1.24 1.24 0 0 1 .165-.159c.227-.209.469-.4.725-.572.089-.058.184-.115.274-.178a12.082 12.082 0 0 1 2.016-.967c.242-.089.483-.172.744-.261.096-.026.185-.057.28-.089.14-.045.28-.089.426-.121a27.398 27.398 0 0 1 2.354-.573c.101-.019.21-.038.318-.063.152-.032.311-.057.47-.083l.662-.114c1.889-.299 4.033-.522 6.399-.668l.668-.038.788-.038c.223-.013.452-.02.681-.026.223-.013.452-.019.687-.025.642-.019 1.304-.039 1.978-.051 1.921-.038 3.944-.026 6.068.019.986.025 1.991.051 3.022.095.07 0 .133.007.197.007.897.031 1.8.07 2.729.12.648.032 1.304.064 1.959.102.617.038 1.24.077 1.87.121.49.026.979.064 1.476.095.419.032.839.064 1.259.09l.572.038c.312.025.624.044.942.076.7.057 1.399.115 2.112.172l2.143.191c.719.063 1.444.133 2.169.203l.217.019c.661.07 1.323.134 1.99.204.153.012.312.025.465.044.637.064 1.286.139 1.928.207l.592.064c.503.055.999.102 1.506.162.668.076 1.349.146 2.01.235a179.874 179.874 0 0 1 3.995.484c.311.038.623.076.935.12a552.386 552.386 0 0 1 18.185 2.634c3.734.604 7.489 1.242 11.265 1.914.954.172 1.908.344 2.869.522l1.297.248c.738.134 1.476.274 2.214.413.738.14 1.476.28 2.213.427l2.64.515a613.628 613.628 0 0 1 17.142 3.645c.923.209 1.845.426 2.761.636 1.832.426 3.647.858 5.445 1.297.496.115.986.236 1.476.356 1.221.306 2.442.611 3.644.923l.21.057c.884.216 1.749.439 2.614.668 2.042.534 4.05 1.075 6.024 1.622a328.54 328.54 0 0 1 9.503 2.78c.452.139.903.279 1.349.413a236.461 236.461 0 0 1 9.801 3.269c.605.217 1.203.446 1.801.662.858.318 1.704.636 2.531.954.255.095.503.197.751.293.159.07.311.127.464.19.299.121.604.236.897.357.299.114.591.235.884.362.286.115.579.236.859.356.286.115.566.236.846.363.235.095.464.197.687.299.451.197.903.394 1.342.598.216.102.432.197.649.299l.496.229c.07.038.14.07.21.102.159.076.324.159.483.235.369.172.732.356 1.088.528.477.242.941.483 1.386.719.452.241.891.483 1.311.718.07.039.133.077.203.115.096.051.191.108.287.159.324.184.636.375.947.56.611.375 1.19.744 1.73 1.113.121.082.236.165.357.241.4.287.782.567 1.138.853 0 .006 0 .006.007.006.12.089.235.185.349.274.096.089.198.165.293.254.331.286.636.56.916.84.094.086.183.177.267.273a.819.819 0 0 1 .102.102c.127.127.242.254.35.382a.31.31 0 0 1 .044.057c.153.178.293.356.426.534.064.089.134.178.191.267.077.109.153.223.217.331.057.089.108.185.159.274.135.229.249.469.343.718.072.169.129.344.172.522.048.169.084.341.108.515Z" fill="#081546"/><path opacity=".2" d="M346.021 293.509a212.463 212.463 0 0 1-.07 4.599c-.006.267-.019.541-.025.821a838.475 838.475 0 0 1-.318 10.495c-.179 4.605-.458 9.967-.942 18.459-.897 15.686-2.461 2.156-4.033 7.658a445.017 445.017 0 0 0-14.26-8.383 654.58 654.58 0 0 0-2.793-1.571c-10.228-5.706-21.652-11.685-33.578-17.607a155.09 155.09 0 0 0-1.419-.7c-27.319-13.504-57.139-26.639-81.297-35.404a373.292 373.292 0 0 0-13.3-4.56c-8.816-2.818-16.436-4.79-22.301-5.642-6.106-.891-10.323-.573-12.028 1.265a527.25 527.25 0 0 0-.197-3.727l-.077-1.164c.04-.105.091-.205.14-.305l.019-.045a.636.636 0 0 1 .045-.095c.019-.04.04-.078.063-.115a.682.682 0 0 1 .077-.127c.057-.089.121-.184.191-.274.051-.066.106-.13.165-.19a.4.4 0 0 1 .07-.083c.025-.026.051-.057.083-.089a.19.19 0 0 1 .051-.051 1.24 1.24 0 0 1 .165-.159c.227-.209.469-.4.725-.572.089-.058.185-.115.274-.179a12.157 12.157 0 0 1 2.016-.966c.242-.089.483-.172.744-.261.096-.026.185-.057.28-.089.14-.045.28-.089.426-.121a29.386 29.386 0 0 1 3.142-.719l.662-.114c1.889-.299 4.033-.522 6.399-.668l.668-.038.788-.039c.223-.012.452-.019.681-.025a147.907 147.907 0 0 1 2.665-.076c1.921-.032 3.944-.019 6.068.025.986.019 1.991.051 3.022.096.063 0 .133.006.197.006.897.025 1.806.07 2.729.114.649.032 1.304.064 1.959.102.617.038 1.24.076 1.87.121.49.025.979.064 1.476.095.419.032.839.064 1.259.089l1.514.115 2.112.172 2.143.191c.719.063 1.444.133 2.169.203l.217.019c.661.07 1.323.134 1.99.204 3.702.375 7.513.814 11.431 1.316a598.83 598.83 0 0 1 18.185 2.634c3.734.604 7.489 1.242 11.265 1.914.954.172 1.908.344 2.869.522 1.17.216 2.341.437 3.511.661.738.14 1.476.28 2.213.427l2.64.515a614.468 614.468 0 0 1 17.143 3.645c.922.209 1.844.426 2.76.636 1.832.426 3.647.858 5.445 1.297l1.476.363c1.227.305 2.442.61 3.644.916v.006a268.236 268.236 0 0 1 2.824.725 511.57 511.57 0 0 1 6.024 1.616c1.31.369 2.608.731 3.887 1.1 1.914.56 3.791 1.12 5.616 1.68.452.139.903.279 1.349.413 1.335.42 2.646.837 3.931 1.253a247.173 247.173 0 0 1 5.871 2.016c.61.217 1.208.439 1.8.656.865.318 1.704.636 2.531.96.255.095.503.197.751.293.464.178.916.362 1.361.547.299.114.592.235.884.362.286.115.579.236.859.356.286.115.566.236.846.363.235.095.464.197.687.299.451.197.903.394 1.342.598.216.102.432.197.649.299l.496.229c.07.038.14.07.21.102.54.254 1.062.508 1.571.763.477.242.941.483 1.387.719.528.279 1.03.553 1.513.833.096.051.191.108.287.159.324.184.636.375.947.56.611.375 1.19.744 1.731 1.113.534.369 1.03.731 1.494 1.094 0 .006 0 .006.007.006.222.178.439.356.642.528.331.286.636.56.916.84.094.086.183.177.267.273a.819.819 0 0 1 .102.102 10.502 10.502 0 0 1 .821.973c.063.089.133.178.19.267.077.108.153.223.217.331.057.089.108.185.159.274.135.229.25.469.343.718.07.17.127.344.172.522.048.169.084.341.108.515Z" fill="#000"/></g><defs><clipPath id="a"><path fill="#fff" d="M0 0h500.478v364H0z"/></clipPath></defs></svg>