<svg width="501" height="364" viewBox="0 0 501 364" fill="none" xmlns="http://www.w3.org/2000/svg">
<g clip-path="url(#clip0_56_410)">
<path d="M291.528 64.1689C300.908 64.1689 308.511 56.5651 308.511 47.1852C308.511 37.8054 300.908 30.2015 291.528 30.2015C282.148 30.2015 274.544 37.8054 274.544 47.1852C274.544 56.5651 282.148 64.1689 291.528 64.1689Z" fill="#F2F2F2"/>
<path d="M423.276 316.227C448.52 296.999 460.578 264.688 453.029 233.866C452.842 233.1 452.644 232.336 452.435 231.574C447.431 213.278 435.05 195.89 417.006 190.044C401.855 185.135 385.317 188.91 369.51 186.958C338.482 183.126 314.426 158.02 297.499 131.734C280.573 105.448 267.564 76.0241 245.073 54.3079C207.999 18.5125 147.523 10.8057 101.557 34.1058C55.591 57.4061 26.3112 109.1 27.5599 160.619C28.8087 212.138 59.3932 261.393 103.81 287.527C120.126 297.127 138.998 303.928 157.78 301.548C174.076 299.483 188.883 290.727 205.103 288.127C230.604 284.04 255.943 295.57 277.999 309.006C300.055 322.441 321.36 338.367 346.425 344.596C370.762 350.644 400.913 333.26 423.276 316.227Z" fill="#F2F2F2"/>
<path d="M0 276.242C5.52576 282.79 11.5025 288.943 17.8865 294.657L482.592 295.293C488.976 289.579 494.952 283.426 500.478 276.879L0 276.242Z" fill="#404040"/>
<path d="M315.132 217.278V271.793C315.132 272.487 315.408 273.154 315.9 273.645C316.391 274.136 317.057 274.412 317.752 274.413H398.536C399.231 274.412 399.897 274.136 400.388 273.645C400.88 273.154 401.156 272.487 401.156 271.793V217.278C401.155 216.584 400.878 215.919 400.387 215.429C399.896 214.938 399.23 214.662 398.536 214.661H317.752C317.057 214.662 316.392 214.938 315.901 215.429C315.41 215.919 315.133 216.584 315.132 217.278Z" fill="#404040"/>
<path d="M317.027 217.957V271.12C317.027 271.491 317.175 271.847 317.438 272.11C317.7 272.372 318.056 272.52 318.427 272.52H397.864C398.235 272.52 398.591 272.372 398.853 272.11C399.116 271.847 399.264 271.491 399.264 271.12V217.957C399.264 217.585 399.117 217.229 398.854 216.966C398.592 216.702 398.236 216.554 397.864 216.553H318.427C318.055 216.554 317.699 216.702 317.437 216.966C317.174 217.229 317.027 217.585 317.027 217.957Z" fill="#0F2D95"/>
<path d="M313.442 282.424C313.59 282.61 313.778 282.76 313.992 282.862C314.206 282.964 314.441 283.017 314.678 283.016H401.179C401.416 283.016 401.65 282.963 401.863 282.861C402.077 282.759 402.265 282.611 402.414 282.427C402.563 282.243 402.669 282.029 402.724 281.799C402.78 281.569 402.784 281.329 402.735 281.098L401.393 274.72C401.337 274.46 401.217 274.217 401.044 274.015C400.871 273.814 400.65 273.658 400.401 273.563C400.222 273.493 400.03 273.457 399.837 273.457H316.016C315.822 273.457 315.631 273.493 315.451 273.563C315.202 273.658 314.981 273.814 314.808 274.015C314.635 274.217 314.515 274.46 314.46 274.72L313.117 281.098C313.069 281.329 313.073 281.568 313.13 281.798C313.186 282.027 313.293 282.241 313.442 282.424Z" fill="#081546"/>
<path d="M396.869 276.204H398.912C399.083 276.204 399.222 276.065 399.222 275.893V274.916C399.222 274.744 399.083 274.605 398.912 274.605H396.869C396.697 274.605 396.558 274.744 396.558 274.916V275.893C396.558 276.065 396.697 276.204 396.869 276.204Z" fill="#404040"/>
<path d="M391.54 276.204H393.583C393.755 276.204 393.894 276.065 393.894 275.893V274.916C393.894 274.744 393.755 274.605 393.583 274.605H391.54C391.369 274.605 391.23 274.744 391.23 274.916V275.893C391.23 276.065 391.369 276.204 391.54 276.204Z" fill="#404040"/>
<path d="M386.212 276.204H388.255C388.427 276.204 388.566 276.065 388.566 275.893V274.916C388.566 274.744 388.427 274.605 388.255 274.605H386.212C386.041 274.605 385.901 274.744 385.901 274.916V275.893C385.901 276.065 386.041 276.204 386.212 276.204Z" fill="#404040"/>
<path d="M380.884 276.204H382.927C383.098 276.204 383.237 276.065 383.237 275.893V274.916C383.237 274.744 383.098 274.605 382.927 274.605H380.884C380.712 274.605 380.573 274.744 380.573 274.916V275.893C380.573 276.065 380.712 276.204 380.884 276.204Z" fill="#404040"/>
<path d="M375.555 276.204H377.598C377.77 276.204 377.909 276.065 377.909 275.893V274.916C377.909 274.744 377.77 274.605 377.598 274.605H375.555C375.384 274.605 375.244 274.744 375.244 274.916V275.893C375.244 276.065 375.384 276.204 375.555 276.204Z" fill="#404040"/>
<path d="M370.227 276.204H372.27C372.441 276.204 372.58 276.065 372.58 275.893V274.916C372.58 274.744 372.441 274.605 372.27 274.605H370.227C370.055 274.605 369.916 274.744 369.916 274.916V275.893C369.916 276.065 370.055 276.204 370.227 276.204Z" fill="#404040"/>
<path d="M364.899 276.204H366.942C367.113 276.204 367.252 276.065 367.252 275.893V274.916C367.252 274.744 367.113 274.605 366.942 274.605H364.899C364.727 274.605 364.588 274.744 364.588 274.916V275.893C364.588 276.065 364.727 276.204 364.899 276.204Z" fill="#404040"/>
<path d="M359.57 276.204H361.613C361.785 276.204 361.924 276.065 361.924 275.893V274.916C361.924 274.744 361.785 274.605 361.613 274.605H359.57C359.399 274.605 359.26 274.744 359.26 274.916V275.893C359.26 276.065 359.399 276.204 359.57 276.204Z" fill="#404040"/>
<path d="M354.242 276.204H356.285C356.456 276.204 356.595 276.065 356.595 275.893V274.916C356.595 274.744 356.456 274.605 356.285 274.605H354.242C354.07 274.605 353.931 274.744 353.931 274.916V275.893C353.931 276.065 354.07 276.204 354.242 276.204Z" fill="#404040"/>
<path d="M348.913 276.204H350.956C351.128 276.204 351.267 276.065 351.267 275.893V274.916C351.267 274.744 351.128 274.605 350.956 274.605H348.913C348.742 274.605 348.603 274.744 348.603 274.916V275.893C348.603 276.065 348.742 276.204 348.913 276.204Z" fill="#404040"/>
<path d="M343.585 276.204H345.628C345.799 276.204 345.938 276.065 345.938 275.893V274.916C345.938 274.744 345.799 274.605 345.628 274.605H343.585C343.413 274.605 343.274 274.744 343.274 274.916V275.893C343.274 276.065 343.413 276.204 343.585 276.204Z" fill="#404040"/>
<path d="M338.256 276.204H340.299C340.471 276.204 340.61 276.065 340.61 275.893V274.916C340.61 274.744 340.471 274.605 340.299 274.605H338.256C338.085 274.605 337.946 274.744 337.946 274.916V275.893C337.946 276.065 338.085 276.204 338.256 276.204Z" fill="#404040"/>
<path d="M332.928 276.204H334.971C335.142 276.204 335.281 276.065 335.281 275.893V274.916C335.281 274.744 335.142 274.605 334.971 274.605H332.928C332.756 274.605 332.617 274.744 332.617 274.916V275.893C332.617 276.065 332.756 276.204 332.928 276.204Z" fill="#404040"/>
<path d="M327.599 276.204H329.643C329.814 276.204 329.953 276.065 329.953 275.893V274.916C329.953 274.744 329.814 274.605 329.643 274.605H327.599C327.428 274.605 327.289 274.744 327.289 274.916V275.893C327.289 276.065 327.428 276.204 327.599 276.204Z" fill="#404040"/>
<path d="M322.271 276.204H324.314C324.486 276.204 324.625 276.065 324.625 275.893V274.916C324.625 274.744 324.486 274.605 324.314 274.605H322.271C322.099 274.605 321.96 274.744 321.96 274.916V275.893C321.96 276.065 322.099 276.204 322.271 276.204Z" fill="#404040"/>
<path d="M316.943 276.204H318.986C319.157 276.204 319.296 276.065 319.296 275.893V274.916C319.296 274.744 319.157 274.605 318.986 274.605H316.943C316.771 274.605 316.632 274.744 316.632 274.916V275.893C316.632 276.065 316.771 276.204 316.943 276.204Z" fill="#404040"/>
<path d="M396.932 278.868H398.975C399.146 278.868 399.285 278.729 399.285 278.558V277.58C399.285 277.409 399.146 277.27 398.975 277.27H396.932C396.76 277.27 396.621 277.409 396.621 277.58V278.558C396.621 278.729 396.76 278.868 396.932 278.868Z" fill="#404040"/>
<path d="M391.603 278.868H393.647C393.818 278.868 393.957 278.729 393.957 278.558V277.58C393.957 277.409 393.818 277.27 393.647 277.27H391.603C391.432 277.27 391.293 277.409 391.293 277.58V278.558C391.293 278.729 391.432 278.868 391.603 278.868Z" fill="#404040"/>
<path d="M386.275 278.868H388.318C388.489 278.868 388.628 278.729 388.628 278.558V277.58C388.628 277.409 388.489 277.27 388.318 277.27H386.275C386.103 277.27 385.964 277.409 385.964 277.58V278.558C385.964 278.729 386.103 278.868 386.275 278.868Z" fill="#404040"/>
<path d="M380.946 278.868H382.99C383.161 278.868 383.3 278.729 383.3 278.558V277.58C383.3 277.409 383.161 277.27 382.99 277.27H380.946C380.775 277.27 380.636 277.409 380.636 277.58V278.558C380.636 278.729 380.775 278.868 380.946 278.868Z" fill="#404040"/>
<path d="M375.618 278.868H377.661C377.833 278.868 377.972 278.729 377.972 278.558V277.58C377.972 277.409 377.833 277.27 377.661 277.27H375.618C375.447 277.27 375.307 277.409 375.307 277.58V278.558C375.307 278.729 375.447 278.868 375.618 278.868Z" fill="#404040"/>
<path d="M370.29 278.868H372.333C372.504 278.868 372.643 278.729 372.643 278.558V277.58C372.643 277.409 372.504 277.27 372.333 277.27H370.29C370.118 277.27 369.979 277.409 369.979 277.58V278.558C369.979 278.729 370.118 278.868 370.29 278.868Z" fill="#404040"/>
<path d="M364.961 278.868H367.004C367.176 278.868 367.315 278.729 367.315 278.558V277.58C367.315 277.409 367.176 277.27 367.004 277.27H364.961C364.79 277.27 364.65 277.409 364.65 277.58V278.558C364.65 278.729 364.79 278.868 364.961 278.868Z" fill="#404040"/>
<path d="M359.633 278.868H361.676C361.848 278.868 361.987 278.729 361.987 278.558V277.58C361.987 277.409 361.848 277.27 361.676 277.27H359.633C359.461 277.27 359.322 277.409 359.322 277.58V278.558C359.322 278.729 359.461 278.868 359.633 278.868Z" fill="#404040"/>
<path d="M354.305 278.868H356.348C356.519 278.868 356.658 278.729 356.658 278.558V277.58C356.658 277.409 356.519 277.27 356.348 277.27H354.305C354.133 277.27 353.994 277.409 353.994 277.58V278.558C353.994 278.729 354.133 278.868 354.305 278.868Z" fill="#404040"/>
<path d="M348.976 278.868H351.019C351.191 278.868 351.33 278.729 351.33 278.558V277.58C351.33 277.409 351.191 277.27 351.019 277.27H348.976C348.805 277.27 348.666 277.409 348.666 277.58V278.558C348.666 278.729 348.805 278.868 348.976 278.868Z" fill="#404040"/>
<path d="M343.648 278.868H345.691C345.862 278.868 346.001 278.729 346.001 278.558V277.58C346.001 277.409 345.862 277.27 345.691 277.27H343.648C343.476 277.27 343.337 277.409 343.337 277.58V278.558C343.337 278.729 343.476 278.868 343.648 278.868Z" fill="#404040"/>
<path d="M338.319 278.868H340.362C340.534 278.868 340.673 278.729 340.673 278.558V277.58C340.673 277.409 340.534 277.27 340.362 277.27H338.319C338.148 277.27 338.009 277.409 338.009 277.58V278.558C338.009 278.729 338.148 278.868 338.319 278.868Z" fill="#404040"/>
<path d="M332.991 278.868H335.034C335.206 278.868 335.345 278.729 335.345 278.558V277.58C335.345 277.409 335.206 277.27 335.034 277.27H332.991C332.82 277.27 332.681 277.409 332.681 277.58V278.558C332.681 278.729 332.82 278.868 332.991 278.868Z" fill="#404040"/>
<path d="M327.663 278.868H329.706C329.877 278.868 330.016 278.729 330.016 278.558V277.58C330.016 277.409 329.877 277.27 329.706 277.27H327.663C327.491 277.27 327.352 277.409 327.352 277.58V278.558C327.352 278.729 327.491 278.868 327.663 278.868Z" fill="#404040"/>
<path d="M322.334 278.868H324.377C324.549 278.868 324.688 278.729 324.688 278.558V277.58C324.688 277.409 324.549 277.27 324.377 277.27H322.334C322.163 277.27 322.024 277.409 322.024 277.58V278.558C322.024 278.729 322.163 278.868 322.334 278.868Z" fill="#404040"/>
<path d="M317.006 278.868H319.049C319.22 278.868 319.359 278.729 319.359 278.558V277.58C319.359 277.409 319.22 277.27 319.049 277.27H317.006C316.834 277.27 316.695 277.409 316.695 277.58V278.558C316.695 278.729 316.834 278.868 317.006 278.868Z" fill="#404040"/>
<path d="M352.706 282.065H373.399C373.57 282.065 373.709 281.926 373.709 281.755V280.777C373.709 280.606 373.57 280.467 373.399 280.467H352.706C352.535 280.467 352.396 280.606 352.396 280.777V281.755C352.396 281.926 352.535 282.065 352.706 282.065Z" fill="#404040"/>
<path d="M330.783 228.184H328.974C328.426 228.184 327.981 228.629 327.981 229.177C327.981 229.726 328.426 230.17 328.974 230.17H330.783C331.331 230.17 331.776 229.726 331.776 229.177C331.776 228.629 331.331 228.184 330.783 228.184Z" fill="white"/>
<path d="M351.47 228.184H349.661C349.113 228.184 348.668 228.629 348.668 229.177C348.668 229.726 349.113 230.17 349.661 230.17H351.47C352.018 230.17 352.463 229.726 352.463 229.177C352.463 228.629 352.018 228.184 351.47 228.184Z" fill="white"/>
<path d="M357.331 228.184H355.523C354.974 228.184 354.53 228.629 354.53 229.177C354.53 229.726 354.974 230.17 355.523 230.17H357.331C357.88 230.17 358.324 229.726 358.324 229.177C358.324 228.629 357.88 228.184 357.331 228.184Z" fill="white"/>
<path d="M345.843 228.019H334.601C334.053 228.019 333.608 228.463 333.608 229.012C333.608 229.56 334.053 230.005 334.601 230.005H345.843C346.392 230.005 346.836 229.56 346.836 229.012C346.836 228.463 346.392 228.019 345.843 228.019Z" fill="white"/>
<path d="M373.426 228.019H362.184C361.635 228.019 361.191 228.463 361.191 229.012C361.191 229.56 361.635 230.005 362.184 230.005H373.426C373.974 230.005 374.419 229.56 374.419 229.012C374.419 228.463 373.974 228.019 373.426 228.019Z" fill="white"/>
<path d="M336.299 232.667H334.491C333.942 232.667 333.498 233.111 333.498 233.66C333.498 234.208 333.942 234.653 334.491 234.653H336.299C336.848 234.653 337.292 234.208 337.292 233.66C337.292 233.111 336.848 232.667 336.299 232.667Z" fill="white"/>
<path d="M356.987 232.667H355.178C354.629 232.667 354.185 233.111 354.185 233.66C354.185 234.208 354.629 234.653 355.178 234.653H356.987C357.535 234.653 357.98 234.208 357.98 233.66C357.98 233.111 357.535 232.667 356.987 232.667Z" fill="white"/>
<path d="M362.848 232.667H361.039C360.491 232.667 360.046 233.111 360.046 233.66C360.046 234.208 360.491 234.653 361.039 234.653H362.848C363.396 234.653 363.841 234.208 363.841 233.66C363.841 233.111 363.396 232.667 362.848 232.667Z" fill="white"/>
<path d="M351.359 232.501H340.117C339.569 232.501 339.125 232.946 339.125 233.494C339.125 234.042 339.569 234.487 340.117 234.487H351.359C351.908 234.487 352.352 234.042 352.352 233.494C352.352 232.946 351.908 232.501 351.359 232.501Z" fill="white"/>
<path d="M378.942 232.501H367.7C367.152 232.501 366.707 232.946 366.707 233.494C366.707 234.042 367.152 234.487 367.7 234.487H378.942C379.491 234.487 379.935 234.042 379.935 233.494C379.935 232.946 379.491 232.501 378.942 232.501Z" fill="white"/>
<path d="M341.816 237.149H340.007C339.459 237.149 339.014 237.593 339.014 238.142C339.014 238.69 339.459 239.135 340.007 239.135H341.816C342.364 239.135 342.809 238.69 342.809 238.142C342.809 237.593 342.364 237.149 341.816 237.149Z" fill="white"/>
<path d="M362.503 237.149H360.694C360.146 237.149 359.701 237.593 359.701 238.142C359.701 238.69 360.146 239.135 360.694 239.135H362.503C363.052 239.135 363.496 238.69 363.496 238.142C363.496 237.593 363.052 237.149 362.503 237.149Z" fill="white"/>
<path d="M368.364 237.149H366.555C366.007 237.149 365.562 237.593 365.562 238.142C365.562 238.69 366.007 239.135 366.555 239.135H368.364C368.913 239.135 369.357 238.69 369.357 238.142C369.357 237.593 368.913 237.149 368.364 237.149Z" fill="white"/>
<path d="M356.876 236.983H345.634C345.086 236.983 344.641 237.428 344.641 237.976C344.641 238.525 345.086 238.969 345.634 238.969H356.876C357.424 238.969 357.869 238.525 357.869 237.976C357.869 237.428 357.424 236.983 356.876 236.983Z" fill="white"/>
<path d="M384.459 236.983H373.217C372.669 236.983 372.224 237.428 372.224 237.976C372.224 238.525 372.669 238.969 373.217 238.969H384.459C385.008 238.969 385.452 238.525 385.452 237.976C385.452 237.428 385.008 236.983 384.459 236.983Z" fill="white"/>
<path d="M347.333 241.631H345.524C344.975 241.631 344.531 242.076 344.531 242.624C344.531 243.172 344.975 243.617 345.524 243.617H347.333C347.881 243.617 348.325 243.172 348.325 242.624C348.325 242.076 347.881 241.631 347.333 241.631Z" fill="white"/>
<path d="M368.02 241.631H366.211C365.663 241.631 365.218 242.076 365.218 242.624C365.218 243.172 365.663 243.617 366.211 243.617H368.02C368.568 243.617 369.013 243.172 369.013 242.624C369.013 242.076 368.568 241.631 368.02 241.631Z" fill="white"/>
<path d="M373.881 241.631H372.072C371.524 241.631 371.079 242.076 371.079 242.624C371.079 243.172 371.524 243.617 372.072 243.617H373.881C374.429 243.617 374.874 243.172 374.874 242.624C374.874 242.076 374.429 241.631 373.881 241.631Z" fill="white"/>
<path d="M362.393 241.465H351.151C350.602 241.465 350.158 241.91 350.158 242.458C350.158 243.007 350.602 243.451 351.151 243.451H362.393C362.941 243.451 363.386 243.007 363.386 242.458C363.386 241.91 362.941 241.465 362.393 241.465Z" fill="white"/>
<path d="M351.47 259.454H349.661C349.113 259.454 348.668 259.899 348.668 260.447C348.668 260.995 349.113 261.44 349.661 261.44H351.47C352.018 261.44 352.463 260.995 352.463 260.447C352.463 259.899 352.018 259.454 351.47 259.454Z" fill="white"/>
<path d="M357.331 259.454H355.523C354.974 259.454 354.53 259.899 354.53 260.447C354.53 260.995 354.974 261.44 355.523 261.44H357.331C357.88 261.44 358.324 260.995 358.324 260.447C358.324 259.899 357.88 259.454 357.331 259.454Z" fill="white"/>
<path d="M373.426 259.62H362.184C361.635 259.62 361.191 260.064 361.191 260.613C361.191 261.161 361.635 261.606 362.184 261.606H373.426C373.974 261.606 374.419 261.161 374.419 260.613C374.419 260.064 373.974 259.62 373.426 259.62Z" fill="white"/>
<path d="M330.783 259.454H328.974C328.426 259.454 327.981 259.899 327.981 260.447C327.981 260.995 328.426 261.44 328.974 261.44H330.783C331.331 261.44 331.776 260.995 331.776 260.447C331.776 259.899 331.331 259.454 330.783 259.454Z" fill="white"/>
<path d="M345.843 259.62H334.601C334.053 259.62 333.608 260.064 333.608 260.613C333.608 261.161 334.053 261.606 334.601 261.606H345.843C346.392 261.606 346.836 261.161 346.836 260.613C346.836 260.064 346.392 259.62 345.843 259.62Z" fill="white"/>
<path d="M336.299 254.972H334.491C333.942 254.972 333.498 255.417 333.498 255.965C333.498 256.513 333.942 256.958 334.491 256.958H336.299C336.848 256.958 337.292 256.513 337.292 255.965C337.292 255.417 336.848 254.972 336.299 254.972Z" fill="white"/>
<path d="M356.987 254.972H355.178C354.629 254.972 354.185 255.417 354.185 255.965C354.185 256.513 354.629 256.958 355.178 256.958H356.987C357.535 256.958 357.98 256.513 357.98 255.965C357.98 255.417 357.535 254.972 356.987 254.972Z" fill="white"/>
<path d="M362.848 254.972H361.039C360.491 254.972 360.046 255.417 360.046 255.965C360.046 256.513 360.491 256.958 361.039 256.958H362.848C363.396 256.958 363.841 256.513 363.841 255.965C363.841 255.417 363.396 254.972 362.848 254.972Z" fill="white"/>
<path d="M351.359 255.138H340.117C339.569 255.138 339.125 255.582 339.125 256.131C339.125 256.679 339.569 257.123 340.117 257.123H351.359C351.908 257.123 352.352 256.679 352.352 256.131C352.352 255.582 351.908 255.138 351.359 255.138Z" fill="white"/>
<path d="M341.816 250.49H340.007C339.459 250.49 339.014 250.934 339.014 251.483C339.014 252.031 339.459 252.476 340.007 252.476H341.816C342.364 252.476 342.809 252.031 342.809 251.483C342.809 250.934 342.364 250.49 341.816 250.49Z" fill="white"/>
<path d="M362.503 250.49H360.694C360.146 250.49 359.701 250.934 359.701 251.483C359.701 252.031 360.146 252.476 360.694 252.476H362.503C363.052 252.476 363.496 252.031 363.496 251.483C363.496 250.934 363.052 250.49 362.503 250.49Z" fill="white"/>
<path d="M368.364 250.49H366.555C366.007 250.49 365.562 250.934 365.562 251.483C365.562 252.031 366.007 252.476 366.555 252.476H368.364C368.913 252.476 369.357 252.031 369.357 251.483C369.357 250.934 368.913 250.49 368.364 250.49Z" fill="white"/>
<path d="M356.876 250.655H345.634C345.086 250.655 344.641 251.1 344.641 251.648C344.641 252.197 345.086 252.641 345.634 252.641H356.876C357.424 252.641 357.869 252.197 357.869 251.648C357.869 251.1 357.424 250.655 356.876 250.655Z" fill="white"/>
<path d="M347.333 246.008H345.524C344.975 246.008 344.531 246.452 344.531 247.001C344.531 247.549 344.975 247.994 345.524 247.994H347.333C347.881 247.994 348.325 247.549 348.325 247.001C348.325 246.452 347.881 246.008 347.333 246.008Z" fill="white"/>
<path d="M368.02 246.008H366.211C365.663 246.008 365.218 246.452 365.218 247.001C365.218 247.549 365.663 247.994 366.211 247.994H368.02C368.568 247.994 369.013 247.549 369.013 247.001C369.013 246.452 368.568 246.008 368.02 246.008Z" fill="white"/>
<path d="M373.881 246.008H372.072C371.524 246.008 371.079 246.452 371.079 247.001C371.079 247.549 371.524 247.994 372.072 247.994H373.881C374.429 247.994 374.874 247.549 374.874 247.001C374.874 246.452 374.429 246.008 373.881 246.008Z" fill="white"/>
<path d="M362.393 246.173H351.151C350.602 246.173 350.158 246.618 350.158 247.166C350.158 247.714 350.602 248.159 351.151 248.159H362.393C362.941 248.159 363.386 247.714 363.386 247.166C363.386 246.618 362.941 246.173 362.393 246.173Z" fill="white"/>
<path d="M321.166 311.984L312.675 298.562L339.328 277.315L350.329 265.127C351.758 263.544 353.578 262.363 355.606 261.703C357.635 261.043 359.801 260.928 361.888 261.367C363.976 261.807 365.911 262.786 367.501 264.208C369.091 265.63 370.28 267.445 370.949 269.47C371.941 272.472 371.728 275.741 370.354 278.588C368.981 281.435 366.556 283.637 363.59 284.73L346.194 291.139L321.166 311.984Z" fill="#FFB6B6"/>
<path d="M121.93 214.664V279.9H167.632V214.664C167.633 214.195 167.483 213.737 167.205 213.36C166.926 212.982 166.534 212.703 166.086 212.565C165.875 212.495 165.654 212.461 165.431 212.463H124.137C123.847 212.462 123.561 212.519 123.293 212.629C123.025 212.74 122.782 212.902 122.577 213.106C122.372 213.31 122.209 213.553 122.098 213.82C121.987 214.088 121.93 214.374 121.93 214.664ZM139.765 237.079C139.777 235.793 140.296 234.564 141.21 233.658C142.124 232.753 143.358 232.245 144.644 232.245C145.93 232.245 147.164 232.753 148.078 233.658C148.992 234.564 149.511 235.793 149.523 237.079V244.648C149.516 245.938 148.999 247.173 148.085 248.082C147.171 248.992 145.934 249.502 144.644 249.502C143.354 249.502 142.117 248.992 141.203 248.082C140.289 247.173 139.772 245.938 139.765 244.648V237.079Z" fill="#081546"/>
<path d="M121.79 277.813V284.104C121.791 284.43 121.92 284.742 122.15 284.973C122.38 285.204 122.691 285.336 123.017 285.338H166.544C166.87 285.337 167.182 285.206 167.412 284.975C167.642 284.743 167.772 284.43 167.772 284.104V277.813H121.79Z" fill="#404040"/>
<path d="M50.0338 116.377V235.489C50.035 237.007 50.6385 238.462 51.7119 239.536C52.7852 240.609 54.2406 241.212 55.7585 241.214H232.27C233.788 241.212 235.243 240.609 236.317 239.536C237.39 238.462 237.993 237.007 237.995 235.489V116.377C237.991 114.861 237.386 113.407 236.313 112.336C235.24 111.264 233.786 110.661 232.27 110.659H55.7585C54.2419 110.661 52.7879 111.264 51.7149 112.336C50.6419 113.407 50.0374 114.861 50.0338 116.377Z" fill="#404040"/>
<path d="M54.1746 117.859V234.02C54.176 234.831 54.4987 235.608 55.0722 236.181C55.6457 236.755 56.4231 237.078 57.2341 237.079H230.8C231.611 237.078 232.389 236.755 232.962 236.181C233.536 235.608 233.859 234.831 233.86 234.02V117.859C233.86 117.047 233.538 116.268 232.964 115.694C232.391 115.119 231.612 114.795 230.8 114.793H57.2341C56.4221 114.795 55.644 115.119 55.0704 115.694C54.4968 116.268 54.1746 117.047 54.1746 117.859Z" fill="white"/>
<path d="M86.3857 284.912C86.5624 285.134 86.7869 285.312 87.0425 285.434C87.2981 285.557 87.5781 285.62 87.8614 285.618H191.122C191.405 285.618 191.683 285.554 191.938 285.433C192.193 285.311 192.418 285.134 192.595 284.915C192.773 284.696 192.9 284.439 192.967 284.165C193.033 283.89 193.037 283.605 192.98 283.328L191.377 275.714C191.31 275.404 191.167 275.115 190.96 274.874C190.754 274.633 190.49 274.447 190.193 274.334C189.979 274.25 189.75 274.207 189.519 274.207H89.458C89.2272 274.207 88.9985 274.25 88.7837 274.334C88.4871 274.447 88.2234 274.633 88.0167 274.874C87.8101 275.115 87.667 275.404 87.6006 275.714L85.9977 283.328C85.9407 283.604 85.9459 283.89 86.013 284.164C86.0801 284.438 86.2075 284.693 86.3857 284.912Z" fill="#081546"/>
<path d="M225.168 130.795H62.7624C62.5936 130.791 62.433 130.721 62.3149 130.601C62.1968 130.48 62.1307 130.318 62.1307 130.149C62.1307 129.98 62.1968 129.818 62.3149 129.697C62.433 129.577 62.5936 129.507 62.7624 129.503H225.168C225.337 129.507 225.497 129.577 225.615 129.697C225.733 129.818 225.799 129.98 225.799 130.149C225.799 130.318 225.733 130.48 225.615 130.601C225.497 130.721 225.337 130.791 225.168 130.795Z" fill="#404040"/>
<path d="M73.8175 126.206C75.9079 126.206 77.6025 124.473 77.6025 122.336C77.6025 120.199 75.9079 118.467 73.8175 118.467C71.7272 118.467 70.0326 120.199 70.0326 122.336C70.0326 124.473 71.7272 126.206 73.8175 126.206Z" fill="#404040"/>
<path d="M86.8928 126.206C88.9832 126.206 90.6778 124.473 90.6778 122.336C90.6778 120.199 88.9832 118.467 86.8928 118.467C84.8025 118.467 83.1079 120.199 83.1079 122.336C83.1079 124.473 84.8025 126.206 86.8928 126.206Z" fill="#404040"/>
<path d="M99.968 126.206C102.058 126.206 103.753 124.473 103.753 122.336C103.753 120.199 102.058 118.467 99.968 118.467C97.8777 118.467 96.1831 120.199 96.1831 122.336C96.1831 124.473 97.8777 126.206 99.968 126.206Z" fill="#404040"/>
<path d="M217.294 119.424H208.008C207.824 119.428 207.65 119.504 207.521 119.636C207.393 119.767 207.321 119.943 207.321 120.127C207.321 120.31 207.393 120.487 207.521 120.618C207.65 120.75 207.824 120.825 208.008 120.83H217.294C217.479 120.827 217.655 120.752 217.785 120.62C217.915 120.489 217.987 120.312 217.987 120.127C217.987 119.942 217.915 119.765 217.785 119.633C217.655 119.502 217.479 119.427 217.294 119.424Z" fill="#404040"/>
<path d="M217.295 122.064H208.008C207.824 122.068 207.649 122.144 207.521 122.275C207.392 122.406 207.32 122.583 207.32 122.767C207.32 122.95 207.392 123.127 207.521 123.258C207.649 123.39 207.824 123.465 208.008 123.469H217.295C217.479 123.467 217.656 123.392 217.786 123.261C217.916 123.129 217.989 122.952 217.989 122.767C217.989 122.582 217.916 122.404 217.786 122.273C217.656 122.141 217.479 122.066 217.295 122.064Z" fill="#404040"/>
<path d="M217.294 124.703H208.008C207.824 124.708 207.65 124.784 207.521 124.915C207.393 125.046 207.321 125.223 207.321 125.406C207.321 125.59 207.393 125.766 207.521 125.898C207.65 126.029 207.824 126.105 208.008 126.109H217.294C217.479 126.106 217.655 126.031 217.785 125.9C217.915 125.768 217.987 125.591 217.987 125.406C217.987 125.222 217.915 125.044 217.785 124.913C217.655 124.781 217.479 124.706 217.294 124.703Z" fill="#404040"/>
<path d="M441.18 280.574C441.461 281.39 441.992 282.097 442.699 282.591C443.405 283.086 444.251 283.345 445.113 283.329L461.964 282.896C462.833 282.879 463.673 282.581 464.359 282.047C465.045 281.513 465.539 280.772 465.768 279.933L468.153 254.435C468.999 254.818 469.92 255.007 470.849 254.989C471.655 254.968 472.45 254.79 473.188 254.462C473.925 254.135 474.591 253.665 475.147 253.08C475.704 252.496 476.139 251.807 476.429 251.054C476.719 250.301 476.858 249.498 476.838 248.691C476.818 247.884 476.639 247.089 476.311 246.352C475.984 245.614 475.514 244.948 474.929 244.392C474.345 243.836 473.656 243.401 472.903 243.111C472.15 242.821 471.347 242.682 470.54 242.702C470.169 242.701 469.799 242.739 469.436 242.817C469.041 242.39 468.561 242.05 468.027 241.82C467.493 241.589 466.917 241.473 466.336 241.479L440.415 242.148C440.2 242.156 439.986 242.183 439.776 242.228C439.207 242.334 438.668 242.56 438.195 242.892C437.721 243.224 437.324 243.653 437.03 244.151C436.737 244.649 436.553 245.205 436.492 245.78C436.431 246.355 436.494 246.936 436.676 247.485L441.18 280.574ZM468.642 252.704L470.339 246.627C470.532 245.925 470.536 245.185 470.352 244.481C470.434 244.481 470.507 244.442 470.589 244.441C471.753 244.417 472.878 244.856 473.719 245.66C474.56 246.465 475.047 247.57 475.074 248.733C475.102 249.896 474.666 251.023 473.864 251.866C473.062 252.709 471.958 253.2 470.795 253.23C470.043 253.254 469.298 253.072 468.642 252.704Z" fill="#081546"/>
<path d="M439.776 242.228C440.328 245.385 446.537 247.605 454.002 247.219C460.867 246.903 466.48 244.492 467.509 241.635C467.128 241.523 466.732 241.47 466.335 241.479L440.415 242.148C440.2 242.156 439.986 242.183 439.776 242.228Z" fill="#404040"/>
<path d="M455.37 266.563C455.404 266.554 455.437 266.54 455.466 266.52L459.126 264.125C459.17 264.096 459.206 264.057 459.231 264.01C459.256 263.964 459.27 263.912 459.27 263.859C459.27 263.806 459.257 263.755 459.231 263.708C459.206 263.662 459.17 263.622 459.126 263.593L455.322 261.102C455.287 261.079 455.248 261.063 455.207 261.055C455.166 261.047 455.124 261.047 455.083 261.056C455.042 261.064 455.003 261.081 454.968 261.104C454.933 261.128 454.904 261.158 454.881 261.193C454.858 261.228 454.842 261.267 454.834 261.308C454.827 261.349 454.827 261.392 454.836 261.432C454.844 261.473 454.861 261.512 454.885 261.547C454.908 261.581 454.938 261.611 454.974 261.634L458.371 263.859L455.118 265.988C455.055 266.029 455.009 266.092 454.987 266.164C454.966 266.236 454.971 266.313 455.001 266.382C455.031 266.451 455.085 266.507 455.152 266.54C455.22 266.573 455.297 266.581 455.37 266.563H455.37Z" fill="#0F2D95"/>
<path d="M449.59 266.829C449.652 266.814 449.707 266.78 449.749 266.733C449.792 266.686 449.819 266.627 449.827 266.564C449.836 266.501 449.826 266.438 449.798 266.381C449.77 266.324 449.726 266.277 449.671 266.245L446.297 264.311L449.558 261.89C449.591 261.865 449.62 261.833 449.641 261.798C449.662 261.762 449.677 261.722 449.683 261.681C449.689 261.64 449.687 261.597 449.676 261.557C449.666 261.517 449.648 261.478 449.623 261.445C449.598 261.411 449.567 261.383 449.531 261.362C449.496 261.34 449.456 261.326 449.415 261.32C449.373 261.314 449.331 261.316 449.291 261.326C449.25 261.336 449.212 261.354 449.179 261.379L445.528 264.091C445.486 264.122 445.452 264.164 445.43 264.212C445.407 264.259 445.397 264.312 445.4 264.365C445.404 264.417 445.42 264.468 445.448 264.513C445.475 264.558 445.514 264.595 445.56 264.622L449.354 266.797C449.426 266.838 449.51 266.85 449.59 266.829Z" fill="#0F2D95"/>
<path d="M455.006 268.662C455.037 268.654 455.066 268.642 455.093 268.625C455.129 268.603 455.16 268.575 455.185 268.541C455.21 268.507 455.227 268.469 455.237 268.428C455.247 268.388 455.249 268.346 455.243 268.304C455.236 268.263 455.222 268.224 455.2 268.188L450.012 259.659C449.969 259.587 449.898 259.536 449.816 259.516C449.734 259.496 449.647 259.51 449.576 259.553C449.504 259.597 449.452 259.668 449.432 259.75C449.412 259.832 449.425 259.918 449.469 259.99L454.657 268.519C454.692 268.577 454.745 268.622 454.808 268.648C454.871 268.674 454.94 268.678 455.006 268.662Z" fill="#0F2D95"/>
<path d="M163.37 165.906H135.261C134.114 165.906 133.185 166.836 133.185 167.982V170.729C133.185 171.875 134.114 172.805 135.261 172.805H163.37C164.516 172.805 165.446 171.875 165.446 170.729V167.982C165.446 166.836 164.516 165.906 163.37 165.906Z" fill="#0F2D95"/>
<path d="M179.754 179.704H118.877C117.73 179.704 116.8 180.633 116.8 181.78V184.526C116.8 185.673 117.73 186.602 118.877 186.602H179.754C180.901 186.602 181.83 185.673 181.83 184.526V181.78C181.83 180.633 180.901 179.704 179.754 179.704Z" fill="#E6E6E6"/>
<path d="M179.754 193.501H118.877C117.73 193.501 116.8 194.431 116.8 195.577V198.323C116.8 199.47 117.73 200.4 118.877 200.4H179.754C180.901 200.4 181.83 199.47 181.83 198.323V195.577C181.83 194.431 180.901 193.501 179.754 193.501Z" fill="#E6E6E6"/>
<path d="M184.915 239.703L185.052 240.138L185.06 240.153L189.21 252.771L193.985 267.313L202.968 294.639L203.055 298.884V298.899L203.722 333.046L201.872 337.676L203.955 345.266C203.955 345.266 202.997 333.793 197.86 340.381C194.95 344.125 191.547 347.957 188.753 351.549C192.824 353.196 196.96 354.686 201.161 356.018C202.068 356.309 202.982 356.584 203.897 356.86C204.093 356.918 204.288 356.976 204.484 357.034C218.411 361.153 232.809 363.467 247.325 363.92C248.079 363.942 248.82 363.956 249.538 363.971C249.792 363.978 250.039 363.986 250.285 363.986C251.098 363.993 251.903 364 252.716 364C254.356 364 255.989 363.976 257.614 363.928C269.644 363.588 281.604 361.971 293.292 359.102C293.213 354.277 292.995 348.639 292.683 342.616C292.538 339.663 289.28 336.463 289.084 333.372C288.946 331.05 291.87 328.866 291.718 326.507C290.731 311.988 289.498 317.562 288.583 307.28C288.489 306.271 288.402 305.306 288.322 304.384C287.734 297.781 287.328 293.653 287.328 293.653L291.232 269.047L297.363 230.415L296.892 229.639L296.362 229.378L264.021 213.37L262.265 208.872C261.754 207.576 260.866 206.462 259.716 205.675C258.567 204.887 257.208 204.462 255.814 204.453L234.51 204.366C233.405 204.361 232.314 204.619 231.328 205.12C230.343 205.621 229.491 206.35 228.843 207.246L223.075 215.235L184.915 239.703Z" fill="#404040"/>
<path d="M207.881 288.559L203.055 298.884L199.761 305.937L194.094 335.608L191.257 338.619L188.826 327.959L163.384 333.608C162.55 328.971 163.161 333.765 162.646 328.678C162.791 328.533 162.943 328.388 163.096 328.243C163.502 327.865 163.843 327.51 163.836 327.169C163.546 309.623 164.416 279.764 171.687 261.675C172.826 258.721 174.327 255.92 176.157 253.337C176.302 253.141 176.44 252.945 176.578 252.75C179.93 248.055 182.049 243.433 185.053 240.146V240.138C185.071 240.123 185.088 240.106 185.104 240.088C185.114 240.082 185.124 240.075 185.133 240.066L205.769 229.124L206.654 253.998L207.286 271.877L207.881 288.559Z" fill="#404040"/>
<path d="M282.292 291.491L288.319 304.388L290.423 308.879L296.088 338.547L298.916 341.551L301.353 330.893L302.497 330.658L323.144 326.382L329.161 345.494C330.518 343.234 331.052 340.575 330.674 337.967C330.296 335.359 329.029 332.961 327.087 331.179C326.676 330.807 326.333 330.445 326.343 330.103C326.686 309.466 325.423 271.785 314.024 256.276C310.404 251.354 308.231 246.452 305.071 243.027C305.061 243.017 305.061 243.007 305.051 243.007L297.36 230.414L296.891 229.641L296.362 229.377L282.292 291.491Z" fill="#404040"/>
<path d="M245.778 198.303C261.431 198.303 274.12 185.613 274.12 169.96C274.12 154.307 261.431 141.618 245.778 141.618C230.125 141.618 217.435 154.307 217.435 169.96C217.435 185.613 230.125 198.303 245.778 198.303Z" fill="#FFB6B6"/>
<path d="M284.086 150.163C283.866 149.928 283.602 149.74 283.308 149.61C283.014 149.48 282.696 149.411 282.375 149.406L282.801 148.223C282.94 147.85 282.978 147.447 282.91 147.055C282.842 146.663 282.671 146.297 282.415 145.992C282.159 145.688 281.826 145.458 281.451 145.324C281.077 145.191 280.673 145.16 280.282 145.233L278.73 145.532L278.877 144.496C278.933 144.109 278.887 143.715 278.745 143.352C278.603 142.989 278.368 142.669 278.064 142.424C277.761 142.178 277.399 142.017 277.014 141.954C276.628 141.891 276.234 141.93 275.868 142.066C275.535 142.197 275.178 142.252 274.821 142.226C274.464 142.201 274.118 142.096 273.807 141.919C273.495 141.748 273.224 141.511 273.013 141.224C272.802 140.937 272.656 140.608 272.586 140.259L272.045 137.651L271.988 137.511C269.355 133.122 264.291 129.929 258.096 128.759C252.581 127.709 246.926 128.244 241.475 128.746C239.313 128.95 236.87 129.179 234.835 130.425C233.105 131.494 231.642 133.631 231.94 135.788C226.566 134.14 220.803 137.429 217.947 141.576C214.563 146.512 214.009 152.695 213.92 157.529C213.679 168.965 216.039 178.322 220.917 185.344C221.273 185.853 221.363 186.916 222.069 187.272L221.922 187.036C222.711 187.431 223.512 188.067 223.213 188.747C222.355 190.707 228.06 195.038 232.08 196.469C239.414 199.084 249.165 198.861 256.022 197.92L256.264 196.298C258.738 195.961 260.481 195.318 260.971 194.313C261.836 193.575 262.574 192.914 263.216 192.303L263.223 192.297C263.235 192.284 263.261 192.265 263.274 192.252C266.371 189.282 267.09 187.59 267.414 185.014C267.726 182.488 267.173 179.925 266.607 177.616C278.527 179.461 261.912 164.92 273.018 162.109C273.146 162.069 273.275 162.037 273.406 162.013C273.731 161.937 274.055 161.86 274.367 161.771C275.869 161.364 277.308 160.749 278.641 159.946C281.745 158.057 282.769 155.551 284.372 152.726C284.604 152.324 284.701 151.859 284.649 151.398C284.598 150.937 284.4 150.504 284.086 150.163Z" fill="#081546"/>
<path d="M346.021 293.509C346.015 294.622 346.002 296.181 345.951 298.108C345.945 298.375 345.938 298.649 345.932 298.929C345.849 302.472 345.767 305.442 345.633 308.743C345.627 308.972 345.62 309.195 345.607 309.424C345.429 314.029 345.15 319.391 344.666 327.883C343.769 343.569 342.204 330.039 340.633 335.541C340.557 335.815 340.474 336.139 340.398 336.521C340.16 337.906 339.759 339.257 339.202 340.547C338.369 341.043 337.51 341.52 336.664 341.997C334.254 343.34 331.805 344.631 329.337 345.858C327.95 346.545 326.557 347.22 325.158 347.868C324.935 347.97 324.719 348.072 324.503 348.167C317.337 351.482 309.951 354.3 302.399 356.602C300.923 357.047 299.454 357.48 297.965 357.88C296.413 358.313 294.861 358.72 293.29 359.102C281.602 361.971 269.643 363.589 257.613 363.929C255.991 363.98 254.356 363.999 252.715 363.999C251.901 363.999 251.099 363.993 250.285 363.987C250.037 363.987 249.789 363.98 249.541 363.974C248.822 363.955 248.078 363.942 247.327 363.923C232.811 363.47 218.414 361.155 204.488 357.034L203.896 356.863C202.98 356.583 202.07 356.309 201.161 356.017C196.963 354.687 192.826 353.199 188.751 351.551C185.641 350.298 182.566 348.954 179.528 347.519C179.5 347.511 179.474 347.498 179.452 347.48C178.815 347.188 178.173 346.883 177.537 346.571C177.454 346.526 177.365 346.482 177.276 346.437C174.904 345.28 172.556 344.067 170.235 342.799C168.282 338.315 165.534 337.456 163.829 333.512C163.333 332.341 162.975 331.115 162.761 329.861C162.761 329.848 162.754 329.836 162.754 329.817C162.933 332.183 161.998 325.618 162.748 329.791C162.742 329.715 162.735 329.632 162.729 329.537C162.71 329.308 162.685 329.028 162.646 328.678C160.465 307.376 160.605 283.014 159.657 262.939C159.593 261.642 159.527 260.399 159.46 259.212C159.441 258.818 159.415 258.43 159.39 258.048C159.434 257.934 159.485 257.813 159.542 257.698C159.554 257.665 159.569 257.633 159.587 257.603C159.606 257.563 159.627 257.525 159.65 257.488C159.663 257.469 159.682 257.444 159.695 257.425C159.704 257.403 159.715 257.382 159.727 257.361C159.784 257.272 159.848 257.177 159.918 257.088C159.949 257.049 159.975 257.017 160.007 256.986C160.029 256.953 160.054 256.923 160.083 256.897C160.102 256.866 160.126 256.838 160.153 256.814C160.178 256.789 160.204 256.757 160.236 256.725C160.249 256.705 160.266 256.688 160.287 256.674C160.337 256.616 160.392 256.563 160.452 256.515C160.679 256.306 160.921 256.115 161.177 255.943C161.266 255.885 161.361 255.828 161.451 255.765C162.092 255.381 162.767 255.057 163.467 254.798C163.709 254.709 163.95 254.626 164.211 254.537C164.307 254.511 164.396 254.48 164.491 254.448C164.631 254.403 164.771 254.359 164.917 254.327C165.642 254.111 166.425 253.926 167.271 253.754C167.372 253.735 167.481 253.716 167.589 253.691C167.741 253.659 167.9 253.634 168.059 253.608C168.276 253.57 168.498 253.532 168.721 253.494C170.61 253.195 172.754 252.972 175.12 252.826C175.342 252.813 175.565 252.8 175.788 252.788C176.049 252.775 176.309 252.762 176.576 252.75C176.799 252.737 177.028 252.73 177.257 252.724C177.48 252.711 177.709 252.705 177.944 252.699C178.586 252.68 179.248 252.66 179.922 252.648C181.843 252.61 183.866 252.622 185.99 252.667C186.976 252.692 187.981 252.718 189.012 252.762C189.082 252.762 189.145 252.769 189.209 252.769C190.106 252.8 191.009 252.839 191.938 252.889C192.586 252.921 193.242 252.953 193.897 252.991C194.514 253.029 195.137 253.068 195.767 253.112C196.257 253.138 196.746 253.176 197.243 253.207C197.662 253.239 198.082 253.271 198.502 253.297L199.074 253.335C199.386 253.36 199.698 253.379 200.016 253.411C200.716 253.468 201.415 253.526 202.128 253.583C202.834 253.646 203.552 253.71 204.271 253.774C204.99 253.837 205.715 253.907 206.44 253.977C206.517 253.983 206.587 253.99 206.657 253.996C207.318 254.066 207.98 254.13 208.647 254.2C208.8 254.212 208.959 254.225 209.112 254.244C209.749 254.308 210.398 254.383 211.04 254.451C211.238 254.473 211.434 254.493 211.632 254.515C212.135 254.57 212.631 254.617 213.138 254.677C213.806 254.753 214.487 254.823 215.148 254.912C215.663 254.969 216.179 255.027 216.694 255.09C217.502 255.186 218.322 255.287 219.143 255.396C219.454 255.434 219.766 255.472 220.078 255.516C222.418 255.809 224.785 256.133 227.189 256.471C230.834 256.986 234.536 257.546 238.263 258.15C241.997 258.754 245.752 259.392 249.528 260.064C250.482 260.236 251.436 260.408 252.397 260.586C252.829 260.669 253.262 260.751 253.694 260.834C254.432 260.968 255.17 261.108 255.908 261.247C256.646 261.387 257.384 261.527 258.121 261.674C258.999 261.845 259.883 262.017 260.761 262.189C266.543 263.334 272.293 264.555 277.903 265.834C278.826 266.043 279.748 266.26 280.664 266.47C282.496 266.896 284.311 267.328 286.109 267.767C286.605 267.882 287.095 268.003 287.585 268.123C288.806 268.429 290.027 268.734 291.229 269.046L291.439 269.103C292.323 269.319 293.188 269.542 294.053 269.771C296.095 270.305 298.103 270.846 300.077 271.393C301.387 271.755 302.683 272.122 303.964 272.493C305.878 273.047 307.755 273.606 309.58 274.173C310.032 274.312 310.483 274.452 310.929 274.586C312.264 274.999 313.581 275.419 314.859 275.839C315.877 276.17 316.869 276.507 317.849 276.844C318.829 277.181 319.789 277.518 320.73 277.855C321.335 278.072 321.933 278.301 322.531 278.517C323.389 278.835 324.235 279.153 325.062 279.471C325.317 279.566 325.565 279.668 325.813 279.764C325.972 279.834 326.124 279.891 326.277 279.954C326.576 280.075 326.881 280.19 327.174 280.311C327.473 280.425 327.765 280.546 328.058 280.673C328.344 280.788 328.637 280.909 328.917 281.029C329.203 281.144 329.483 281.265 329.763 281.392C329.998 281.487 330.227 281.589 330.45 281.691C330.901 281.888 331.353 282.085 331.792 282.289C332.008 282.391 332.224 282.486 332.441 282.588L332.937 282.817C333.007 282.855 333.077 282.887 333.147 282.919C333.306 282.995 333.471 283.078 333.63 283.154C333.999 283.326 334.362 283.51 334.718 283.682C335.195 283.924 335.659 284.165 336.104 284.401C336.556 284.642 336.995 284.884 337.415 285.119C337.485 285.158 337.548 285.196 337.618 285.234C337.714 285.285 337.809 285.342 337.905 285.393C338.229 285.577 338.541 285.768 338.852 285.953C339.463 286.328 340.042 286.697 340.582 287.066C340.703 287.148 340.818 287.231 340.939 287.307C341.339 287.594 341.721 287.874 342.077 288.16C342.077 288.166 342.077 288.166 342.084 288.166C342.204 288.255 342.319 288.351 342.433 288.44C342.529 288.529 342.631 288.605 342.726 288.694C343.057 288.98 343.362 289.254 343.642 289.534C343.736 289.62 343.825 289.711 343.909 289.807C343.946 289.838 343.98 289.872 344.011 289.909C344.138 290.036 344.253 290.163 344.361 290.291C344.378 290.308 344.392 290.327 344.405 290.348C344.558 290.526 344.698 290.704 344.831 290.882C344.895 290.971 344.965 291.06 345.022 291.149C345.099 291.258 345.175 291.372 345.239 291.48C345.296 291.569 345.347 291.665 345.398 291.754C345.533 291.983 345.647 292.223 345.741 292.472C345.813 292.641 345.87 292.816 345.913 292.994C345.961 293.163 345.997 293.335 346.021 293.509Z" fill="#081546"/>
<path opacity="0.2" d="M346.021 293.509C346.015 294.622 346.002 296.181 345.951 298.108C345.945 298.375 345.932 298.649 345.926 298.929C345.862 301.632 345.767 304.971 345.633 308.743C345.627 308.972 345.62 309.195 345.608 309.424C345.429 314.029 345.15 319.391 344.666 327.883C343.769 343.569 342.205 330.039 340.633 335.541C336.27 332.857 331.487 330.046 326.373 327.158C325.45 326.636 324.519 326.112 323.58 325.587C313.352 319.881 301.928 313.902 290.002 307.98C289.531 307.745 289.054 307.509 288.583 307.28C261.264 293.776 231.444 280.641 207.286 271.876C202.624 270.184 198.171 268.658 193.986 267.316C185.17 264.498 177.55 262.526 171.685 261.674C165.579 260.783 161.362 261.101 159.657 262.939C159.593 261.642 159.527 260.399 159.46 259.212C159.434 258.818 159.409 258.43 159.383 258.048C159.423 257.943 159.474 257.843 159.523 257.743C159.53 257.728 159.535 257.713 159.542 257.698C159.555 257.665 159.569 257.633 159.587 257.603C159.606 257.563 159.627 257.525 159.65 257.488C159.671 257.443 159.697 257.4 159.727 257.361C159.784 257.272 159.848 257.177 159.918 257.087C159.969 257.021 160.024 256.957 160.083 256.897C160.103 256.866 160.126 256.838 160.153 256.814C160.178 256.788 160.204 256.757 160.236 256.725C160.249 256.705 160.267 256.688 160.287 256.674C160.337 256.616 160.392 256.563 160.452 256.515C160.679 256.306 160.921 256.115 161.177 255.943C161.266 255.885 161.362 255.828 161.451 255.764C162.092 255.381 162.767 255.057 163.467 254.798C163.709 254.709 163.95 254.626 164.211 254.537C164.307 254.511 164.396 254.48 164.491 254.448C164.631 254.403 164.771 254.359 164.917 254.327C165.642 254.111 166.425 253.926 167.271 253.754C167.525 253.704 167.792 253.653 168.059 253.608C168.276 253.57 168.498 253.532 168.721 253.494C170.61 253.195 172.754 252.972 175.12 252.826C175.342 252.813 175.565 252.8 175.788 252.788C176.049 252.775 176.309 252.762 176.576 252.749C176.799 252.737 177.028 252.73 177.257 252.724C177.48 252.711 177.709 252.705 177.944 252.699C178.586 252.679 179.248 252.66 179.922 252.648C181.843 252.616 183.866 252.629 185.99 252.673C186.976 252.692 187.981 252.724 189.012 252.769C189.075 252.769 189.145 252.775 189.209 252.775C190.106 252.8 191.015 252.845 191.938 252.889C192.587 252.921 193.242 252.953 193.897 252.991C194.514 253.029 195.137 253.067 195.767 253.112C196.257 253.137 196.746 253.176 197.243 253.207C197.662 253.239 198.082 253.271 198.502 253.296C199.005 253.335 199.507 253.373 200.016 253.411C200.716 253.468 201.415 253.525 202.128 253.583C202.834 253.646 203.552 253.71 204.271 253.774C204.99 253.837 205.715 253.907 206.44 253.977C206.517 253.983 206.587 253.99 206.657 253.996C207.318 254.066 207.98 254.13 208.647 254.2C212.349 254.575 216.16 255.014 220.078 255.516C222.418 255.815 224.789 256.135 227.189 256.477C230.834 256.992 234.536 257.552 238.263 258.15C241.997 258.754 245.752 259.392 249.528 260.064C250.482 260.236 251.436 260.408 252.397 260.586C253.567 260.802 254.738 261.023 255.908 261.247C256.646 261.387 257.384 261.527 258.121 261.674C258.999 261.845 259.883 262.017 260.761 262.189C266.543 263.334 272.293 264.555 277.904 265.834C278.826 266.043 279.748 266.26 280.664 266.47C282.496 266.896 284.311 267.328 286.109 267.767C286.605 267.888 287.095 268.009 287.585 268.13C288.812 268.435 290.027 268.74 291.229 269.046V269.052C291.299 269.065 291.369 269.084 291.439 269.103C292.317 269.326 293.188 269.548 294.053 269.777C296.095 270.312 298.103 270.85 300.077 271.393C301.387 271.762 302.685 272.124 303.964 272.493C305.878 273.053 307.755 273.613 309.58 274.173C310.032 274.312 310.483 274.452 310.929 274.586C312.264 275.006 313.575 275.423 314.86 275.839C315.877 276.17 316.87 276.507 317.849 276.844C318.829 277.181 319.789 277.518 320.731 277.855C321.341 278.072 321.939 278.294 322.531 278.511C323.396 278.829 324.235 279.147 325.062 279.471C325.317 279.566 325.565 279.668 325.813 279.764C326.277 279.942 326.729 280.126 327.174 280.311C327.473 280.425 327.766 280.546 328.058 280.673C328.344 280.788 328.637 280.909 328.917 281.029C329.203 281.144 329.483 281.265 329.763 281.392C329.998 281.487 330.227 281.589 330.45 281.691C330.901 281.888 331.353 282.085 331.792 282.289C332.008 282.391 332.224 282.486 332.441 282.588L332.937 282.817C333.007 282.855 333.077 282.887 333.147 282.919C333.687 283.173 334.209 283.427 334.718 283.682C335.195 283.924 335.659 284.165 336.105 284.401C336.633 284.68 337.135 284.954 337.618 285.234C337.714 285.285 337.809 285.342 337.905 285.393C338.229 285.577 338.541 285.768 338.852 285.953C339.463 286.328 340.042 286.697 340.583 287.066C341.117 287.435 341.613 287.797 342.077 288.16C342.077 288.166 342.077 288.166 342.084 288.166C342.306 288.344 342.523 288.522 342.726 288.694C343.057 288.98 343.362 289.254 343.642 289.534C343.736 289.62 343.825 289.711 343.909 289.807C343.946 289.838 343.98 289.872 344.011 289.909C344.145 290.055 344.278 290.202 344.405 290.348C344.558 290.526 344.698 290.704 344.832 290.882C344.895 290.971 344.965 291.06 345.022 291.149C345.099 291.257 345.175 291.372 345.239 291.48C345.296 291.569 345.347 291.665 345.398 291.754C345.533 291.983 345.648 292.223 345.741 292.472C345.811 292.642 345.868 292.816 345.913 292.994C345.961 293.163 345.997 293.335 346.021 293.509Z" fill="black"/>
</g>
<defs>
<clipPath id="clip0_56_410">
<rect width="500.478" height="364" fill="white"/>
</clipPath>
</defs>
</svg>
