<svg width="60" height="88" viewBox="0 0 60 88" fill="none" xmlns="http://www.w3.org/2000/svg">
<path d="M86.7692 23.6923C86.7692 21.823 88.3879 20.3077 90.3846 20.3077C92.3813 20.3077 94 21.823 94 23.6923C94 25.5616 92.3813 27.0769 90.3846 27.0769C88.3879 27.0769 86.7692 25.5616 86.7692 23.6923Z" fill="#0F2D95"/>
<path d="M86.7692 3.38461C86.7692 1.51534 88.3879 0 90.3846 0C92.3813 0 94 1.51534 94 3.38461C94 5.25388 92.3813 6.76923 90.3846 6.76923C88.3879 6.76923 86.7692 5.25388 86.7692 3.38461Z" fill="#0F2D95"/>
<path d="M65.0769 64.3077C65.0769 62.4384 66.6956 60.9231 68.6923 60.9231C70.689 60.9231 72.3077 62.4384 72.3077 64.3077C72.3077 66.177 70.689 67.6923 68.6923 67.6923C66.6956 67.6923 65.0769 66.177 65.0769 64.3077Z" fill="#0F2D95"/>
<path d="M65.0769 44C65.0769 42.1307 66.6956 40.6154 68.6923 40.6154C70.689 40.6154 72.3077 42.1307 72.3077 44C72.3077 45.8693 70.689 47.3846 68.6923 47.3846C66.6956 47.3846 65.0769 45.8693 65.0769 44Z" fill="#0F2D95"/>
<path d="M65.0769 23.6923C65.0769 21.823 66.6956 20.3077 68.6923 20.3077C70.689 20.3077 72.3077 21.823 72.3077 23.6923C72.3077 25.5616 70.689 27.0769 68.6923 27.0769C66.6956 27.0769 65.0769 25.5616 65.0769 23.6923Z" fill="#0F2D95"/>
<path d="M65.0769 3.38461C65.0769 1.51534 66.6956 0 68.6923 0C70.689 0 72.3077 1.51534 72.3077 3.38461C72.3077 5.25388 70.689 6.76923 68.6923 6.76923C66.6956 6.76923 65.0769 5.25388 65.0769 3.38461Z" fill="#0F2D95"/>
<path d="M43.3846 64.3077C43.3846 62.4384 45.0033 60.9231 47 60.9231C48.9967 60.9231 50.6154 62.4384 50.6154 64.3077C50.6154 66.177 48.9967 67.6923 47 67.6923C45.0033 67.6923 43.3846 66.177 43.3846 64.3077Z" fill="#0F2D95"/>
<path d="M43.3846 44C43.3846 42.1307 45.0033 40.6154 47 40.6154C48.9967 40.6154 50.6154 42.1307 50.6154 44C50.6154 45.8693 48.9967 47.3846 47 47.3846C45.0033 47.3846 43.3846 45.8693 43.3846 44Z" fill="#0F2D95"/>
<path d="M43.3846 23.6923C43.3846 21.823 45.0033 20.3077 47 20.3077C48.9967 20.3077 50.6154 21.823 50.6154 23.6923C50.6154 25.5616 48.9967 27.0769 47 27.0769C45.0033 27.0769 43.3846 25.5616 43.3846 23.6923Z" fill="#0F2D95"/>
<path d="M43.3846 3.38461C43.3846 1.51534 45.0033 0 47 0C48.9967 0 50.6154 1.51534 50.6154 3.38461C50.6154 5.25388 48.9967 6.76923 47 6.76923C45.0033 6.76923 43.3846 5.25388 43.3846 3.38461Z" fill="#0F2D95"/>
<path d="M21.6923 84.6154C21.6923 82.7461 23.311 81.2308 25.3077 81.2308C27.3044 81.2308 28.9231 82.7461 28.9231 84.6154C28.9231 86.4847 27.3044 88 25.3077 88C23.311 88 21.6923 86.4847 21.6923 84.6154Z" fill="#0F2D95"/>
<path d="M21.6923 64.3077C21.6923 62.4384 23.311 60.9231 25.3077 60.9231C27.3044 60.9231 28.9231 62.4384 28.9231 64.3077C28.9231 66.177 27.3044 67.6923 25.3077 67.6923C23.311 67.6923 21.6923 66.177 21.6923 64.3077Z" fill="#0F2D95"/>
<path d="M21.6923 44C21.6923 42.1307 23.311 40.6154 25.3077 40.6154C27.3044 40.6154 28.9231 42.1307 28.9231 44C28.9231 45.8693 27.3044 47.3846 25.3077 47.3846C23.311 47.3846 21.6923 45.8693 21.6923 44Z" fill="#0F2D95"/>
<path d="M21.6923 23.6923C21.6923 21.823 23.311 20.3077 25.3077 20.3077C27.3044 20.3077 28.9231 21.823 28.9231 23.6923C28.9231 25.5616 27.3044 27.0769 25.3077 27.0769C23.311 27.0769 21.6923 25.5616 21.6923 23.6923Z" fill="#0F2D95"/>
<path d="M21.6923 3.38461C21.6923 1.51534 23.311 0 25.3077 0C27.3044 0 28.9231 1.51534 28.9231 3.38461C28.9231 5.25388 27.3044 6.76923 25.3077 6.76923C23.311 6.76923 21.6923 5.25388 21.6923 3.38461Z" fill="#0F2D95"/>
<path d="M0 84.6154C0 82.7461 1.61866 81.2308 3.61539 81.2308C5.61211 81.2308 7.23077 82.7461 7.23077 84.6154C7.23077 86.4847 5.61211 88 3.61539 88C1.61866 88 0 86.4847 0 84.6154Z" fill="#0F2D95"/>
<path d="M0 64.3077C0 62.4384 1.61866 60.9231 3.61539 60.9231C5.61211 60.9231 7.23077 62.4384 7.23077 64.3077C7.23077 66.177 5.61211 67.6923 3.61539 67.6923C1.61866 67.6923 0 66.177 0 64.3077Z" fill="#0F2D95"/>
<path d="M0 44C0 42.1307 1.61866 40.6154 3.61539 40.6154C5.61211 40.6154 7.23077 42.1307 7.23077 44C7.23077 45.8693 5.61211 47.3846 3.61539 47.3846C1.61866 47.3846 0 45.8693 0 44Z" fill="#0F2D95"/>
<path d="M0 23.6923C0 21.823 1.61866 20.3077 3.61539 20.3077C5.61211 20.3077 7.23077 21.823 7.23077 23.6923C7.23077 25.5616 5.61211 27.0769 3.61539 27.0769C1.61866 27.0769 0 25.5616 0 23.6923Z" fill="#0F2D95"/>
<path d="M0 3.38461C0 1.51534 1.61866 0 3.61539 0C5.61211 0 7.23077 1.51534 7.23077 3.38461C7.23077 5.25388 5.61211 6.76923 3.61539 6.76923C1.61866 6.76923 0 5.25388 0 3.38461Z" fill="#0F2D95"/>
</svg>
