<svg width="59" height="88" fill="none" xmlns="http://www.w3.org/2000/svg"><path d="M-27.77 23.692c0-1.869-1.618-3.384-3.615-3.384-1.996 0-3.615 1.515-3.615 3.384 0 1.87 1.619 3.385 3.615 3.385 1.997 0 3.616-1.515 3.616-3.385ZM-27.77 3.385c0-1.87-1.618-3.385-3.615-3.385C-33.38 0-35 1.515-35 3.385c0 1.869 1.619 3.384 3.615 3.384 1.997 0 3.616-1.515 3.616-3.384ZM-6.077 64.308c0-1.87-1.619-3.385-3.615-3.385-1.997 0-3.616 1.515-3.616 3.385 0 1.869 1.619 3.384 3.616 3.384 1.996 0 3.615-1.515 3.615-3.384ZM-6.077 44c0-1.87-1.619-3.385-3.615-3.385-1.997 0-3.616 1.516-3.616 3.385 0 1.87 1.619 3.385 3.616 3.385 1.996 0 3.615-1.516 3.615-3.385ZM-6.077 23.692c0-1.869-1.619-3.384-3.615-3.384-1.997 0-3.616 1.515-3.616 3.384 0 1.87 1.619 3.385 3.616 3.385 1.996 0 3.615-1.515 3.615-3.385ZM-6.077 3.385C-6.077 1.515-7.696 0-9.692 0c-1.997 0-3.616 1.515-3.616 3.385 0 1.869 1.619 3.384 3.616 3.384 1.996 0 3.615-1.515 3.615-3.384ZM15.615 64.308c0-1.87-1.618-3.385-3.615-3.385s-3.615 1.515-3.615 3.385c0 1.869 1.618 3.384 3.615 3.384s3.615-1.515 3.615-3.384ZM15.615 44c0-1.87-1.618-3.385-3.615-3.385S8.385 42.131 8.385 44c0 1.87 1.618 3.385 3.615 3.385s3.615-1.516 3.615-3.385ZM15.615 23.692c0-1.869-1.618-3.384-3.615-3.384s-3.615 1.515-3.615 3.384c0 1.87 1.618 3.385 3.615 3.385s3.615-1.515 3.615-3.385ZM15.615 3.385C15.615 1.515 13.997 0 12 0S8.385 1.515 8.385 3.385c0 1.869 1.618 3.384 3.615 3.384s3.615-1.515 3.615-3.384ZM37.308 84.615c0-1.869-1.619-3.384-3.616-3.384-1.996 0-3.615 1.515-3.615 3.384 0 1.87 1.619 3.385 3.615 3.385 1.997 0 3.616-1.515 3.616-3.385ZM37.308 64.308c0-1.87-1.619-3.385-3.616-3.385-1.996 0-3.615 1.515-3.615 3.385 0 1.869 1.619 3.384 3.615 3.384 1.997 0 3.616-1.515 3.616-3.384ZM37.308 44c0-1.87-1.619-3.385-3.616-3.385-1.996 0-3.615 1.516-3.615 3.385 0 1.87 1.619 3.385 3.615 3.385 1.997 0 3.616-1.516 3.616-3.385ZM37.308 23.692c0-1.869-1.619-3.384-3.616-3.384-1.996 0-3.615 1.515-3.615 3.384 0 1.87 1.619 3.385 3.615 3.385 1.997 0 3.616-1.515 3.616-3.385ZM37.308 3.385c0-1.87-1.619-3.385-3.616-3.385-1.996 0-3.615 1.515-3.615 3.385 0 1.869 1.619 3.384 3.615 3.384 1.997 0 3.616-1.515 3.616-3.384ZM59 84.615c0-1.869-1.619-3.384-3.615-3.384-1.997 0-3.616 1.515-3.616 3.384 0 1.87 1.619 3.385 3.616 3.385C57.38 88 59 86.485 59 84.615ZM59 64.308c0-1.87-1.619-3.385-3.615-3.385-1.997 0-3.616 1.515-3.616 3.385 0 1.869 1.619 3.384 3.616 3.384 1.996 0 3.615-1.515 3.615-3.384ZM59 44c0-1.87-1.619-3.385-3.615-3.385-1.997 0-3.616 1.516-3.616 3.385 0 1.87 1.619 3.385 3.616 3.385C57.38 47.385 59 45.869 59 44ZM59 23.692c0-1.869-1.619-3.384-3.615-3.384-1.997 0-3.616 1.515-3.616 3.384 0 1.87 1.619 3.385 3.616 3.385 1.996 0 3.615-1.515 3.615-3.385ZM59 3.385C59 1.515 57.381 0 55.385 0c-1.997 0-3.616 1.515-3.616 3.385 0 1.869 1.619 3.384 3.616 3.384C57.38 6.77 59 5.254 59 3.385Z" fill="#0F2D95"/></svg>