<svg width="60" height="88" fill="none" xmlns="http://www.w3.org/2000/svg"><path d="M86.77 64.308c0 1.869 1.618 3.384 3.615 3.384 1.996 0 3.615-1.515 3.615-3.384 0-1.87-1.619-3.385-3.615-3.385-1.997 0-3.616 1.515-3.616 3.385ZM86.77 84.615c0 1.87 1.618 3.385 3.615 3.385C92.38 88 94 86.485 94 84.615c0-1.869-1.619-3.384-3.615-3.384-1.997 0-3.616 1.515-3.616 3.384ZM65.077 23.692c0 1.87 1.619 3.385 3.615 3.385 1.997 0 3.616-1.515 3.616-3.385 0-1.869-1.619-3.384-3.616-3.384-1.996 0-3.615 1.515-3.615 3.384ZM65.077 44c0 1.87 1.619 3.385 3.615 3.385 1.997 0 3.616-1.516 3.616-3.385 0-1.87-1.619-3.385-3.616-3.385-1.996 0-3.615 1.516-3.615 3.385ZM65.077 64.308c0 1.869 1.619 3.384 3.615 3.384 1.997 0 3.616-1.515 3.616-3.384 0-1.87-1.619-3.385-3.616-3.385-1.996 0-3.615 1.515-3.615 3.385ZM65.077 84.615c0 1.87 1.619 3.385 3.615 3.385 1.997 0 3.616-1.515 3.616-3.385 0-1.869-1.619-3.384-3.616-3.384-1.996 0-3.615 1.515-3.615 3.384ZM43.385 23.692c0 1.87 1.618 3.385 3.615 3.385s3.615-1.515 3.615-3.385c0-1.869-1.618-3.384-3.615-3.384s-3.615 1.515-3.615 3.384ZM43.385 44c0 1.87 1.618 3.385 3.615 3.385s3.615-1.516 3.615-3.385c0-1.87-1.618-3.385-3.615-3.385S43.385 42.131 43.385 44ZM43.385 64.308c0 1.869 1.618 3.384 3.615 3.384s3.615-1.515 3.615-3.384c0-1.87-1.618-3.385-3.615-3.385s-3.615 1.515-3.615 3.385ZM43.385 84.615C43.385 86.485 45.003 88 47 88s3.615-1.515 3.615-3.385c0-1.869-1.618-3.384-3.615-3.384s-3.615 1.515-3.615 3.384ZM21.692 3.385c0 1.869 1.619 3.384 3.616 3.384 1.996 0 3.615-1.515 3.615-3.384 0-1.87-1.619-3.385-3.615-3.385-1.997 0-3.616 1.515-3.616 3.385ZM21.692 23.692c0 1.87 1.619 3.385 3.616 3.385 1.996 0 3.615-1.515 3.615-3.385 0-1.869-1.619-3.384-3.615-3.384-1.997 0-3.616 1.515-3.616 3.384ZM21.692 44c0 1.87 1.619 3.385 3.616 3.385 1.996 0 3.615-1.516 3.615-3.385 0-1.87-1.619-3.385-3.615-3.385-1.997 0-3.616 1.516-3.616 3.385ZM21.692 64.308c0 1.869 1.619 3.384 3.616 3.384 1.996 0 3.615-1.515 3.615-3.384 0-1.87-1.619-3.385-3.615-3.385-1.997 0-3.616 1.515-3.616 3.385ZM21.692 84.615c0 1.87 1.619 3.385 3.616 3.385 1.996 0 3.615-1.515 3.615-3.385 0-1.869-1.619-3.384-3.615-3.384-1.997 0-3.616 1.515-3.616 3.384ZM0 3.385c0 1.869 1.619 3.384 3.615 3.384 1.997 0 3.616-1.515 3.616-3.384C7.23 1.515 5.612 0 3.615 0 1.62 0 0 1.515 0 3.385ZM0 23.692c0 1.87 1.619 3.385 3.615 3.385 1.997 0 3.616-1.515 3.616-3.385 0-1.869-1.619-3.384-3.616-3.384C1.62 20.308 0 21.823 0 23.692ZM0 44c0 1.87 1.619 3.385 3.615 3.385 1.997 0 3.616-1.516 3.616-3.385 0-1.87-1.619-3.385-3.616-3.385C1.62 40.615 0 42.131 0 44ZM0 64.308c0 1.869 1.619 3.384 3.615 3.384 1.997 0 3.616-1.515 3.616-3.384 0-1.87-1.619-3.385-3.616-3.385C1.62 60.923 0 62.438 0 64.308ZM0 84.615C0 86.485 1.619 88 3.615 88c1.997 0 3.616-1.515 3.616-3.385 0-1.869-1.619-3.384-3.616-3.384C1.62 81.23 0 82.746 0 84.615Z" fill="#0F2D95"/></svg>