<svg width="60" height="88" fill="none" xmlns="http://www.w3.org/2000/svg"><path d="M86.77 23.692c0-1.869 1.618-3.384 3.615-3.384 1.996 0 3.615 1.515 3.615 3.384 0 1.87-1.619 3.385-3.615 3.385-1.997 0-3.616-1.515-3.616-3.385ZM86.77 3.385C86.77 1.515 88.387 0 90.384 0 92.38 0 94 1.515 94 3.385c0 1.869-1.619 3.384-3.615 3.384-1.997 0-3.616-1.515-3.616-3.384ZM65.077 64.308c0-1.87 1.619-3.385 3.615-3.385 1.997 0 3.616 1.515 3.616 3.385 0 1.869-1.619 3.384-3.616 3.384-1.996 0-3.615-1.515-3.615-3.384ZM65.077 44c0-1.87 1.619-3.385 3.615-3.385 1.997 0 3.616 1.516 3.616 3.385 0 1.87-1.619 3.385-3.616 3.385-1.996 0-3.615-1.516-3.615-3.385ZM65.077 23.692c0-1.869 1.619-3.384 3.615-3.384 1.997 0 3.616 1.515 3.616 3.384 0 1.87-1.619 3.385-3.616 3.385-1.996 0-3.615-1.515-3.615-3.385ZM65.077 3.385c0-1.87 1.619-3.385 3.615-3.385 1.997 0 3.616 1.515 3.616 3.385 0 1.869-1.619 3.384-3.616 3.384-1.996 0-3.615-1.515-3.615-3.384ZM43.385 64.308c0-1.87 1.618-3.385 3.615-3.385s3.615 1.515 3.615 3.385c0 1.869-1.618 3.384-3.615 3.384s-3.615-1.515-3.615-3.384ZM43.385 44c0-1.87 1.618-3.385 3.615-3.385s3.615 1.516 3.615 3.385c0 1.87-1.618 3.385-3.615 3.385S43.385 45.869 43.385 44ZM43.385 23.692c0-1.869 1.618-3.384 3.615-3.384s3.615 1.515 3.615 3.384c0 1.87-1.618 3.385-3.615 3.385s-3.615-1.515-3.615-3.385ZM43.385 3.385C43.385 1.515 45.003 0 47 0s3.615 1.515 3.615 3.385c0 1.869-1.618 3.384-3.615 3.384s-3.615-1.515-3.615-3.384ZM21.692 84.615c0-1.869 1.619-3.384 3.616-3.384 1.996 0 3.615 1.515 3.615 3.384 0 1.87-1.619 3.385-3.615 3.385-1.997 0-3.616-1.515-3.616-3.385ZM21.692 64.308c0-1.87 1.619-3.385 3.616-3.385 1.996 0 3.615 1.515 3.615 3.385 0 1.869-1.619 3.384-3.615 3.384-1.997 0-3.616-1.515-3.616-3.384ZM21.692 44c0-1.87 1.619-3.385 3.616-3.385 1.996 0 3.615 1.516 3.615 3.385 0 1.87-1.619 3.385-3.615 3.385-1.997 0-3.616-1.516-3.616-3.385ZM21.692 23.692c0-1.869 1.619-3.384 3.616-3.384 1.996 0 3.615 1.515 3.615 3.384 0 1.87-1.619 3.385-3.615 3.385-1.997 0-3.616-1.515-3.616-3.385ZM21.692 3.385c0-1.87 1.619-3.385 3.616-3.385 1.996 0 3.615 1.515 3.615 3.385 0 1.869-1.619 3.384-3.615 3.384-1.997 0-3.616-1.515-3.616-3.384ZM0 84.615c0-1.869 1.619-3.384 3.615-3.384 1.997 0 3.616 1.515 3.616 3.384C7.23 86.485 5.612 88 3.615 88 1.62 88 0 86.485 0 84.615ZM0 64.308c0-1.87 1.619-3.385 3.615-3.385 1.997 0 3.616 1.515 3.616 3.385 0 1.869-1.619 3.384-3.616 3.384C1.62 67.692 0 66.177 0 64.308ZM0 44c0-1.87 1.619-3.385 3.615-3.385 1.997 0 3.616 1.516 3.616 3.385 0 1.87-1.619 3.385-3.616 3.385C1.62 47.385 0 45.869 0 44ZM0 23.692c0-1.869 1.619-3.384 3.615-3.384 1.997 0 3.616 1.515 3.616 3.384 0 1.87-1.619 3.385-3.616 3.385C1.62 27.077 0 25.562 0 23.692ZM0 3.385C0 1.515 1.619 0 3.615 0c1.997 0 3.616 1.515 3.616 3.385 0 1.869-1.619 3.384-3.616 3.384C1.62 6.77 0 5.254 0 3.385Z" fill="#0F2D95"/></svg>