<svg width="64" height="88" fill="none" xmlns="http://www.w3.org/2000/svg"><path d="M-22.77 64.308c0 1.869-1.618 3.384-3.615 3.384-1.996 0-3.615-1.515-3.615-3.384 0-1.87 1.619-3.385 3.615-3.385 1.997 0 3.616 1.515 3.616 3.385ZM-22.77 84.615c0 1.87-1.618 3.385-3.615 3.385C-28.38 88-30 86.485-30 84.615c0-1.869 1.619-3.384 3.615-3.384 1.997 0 3.616 1.515 3.616 3.384ZM-1.077 23.692c0 1.87-1.619 3.385-3.615 3.385-1.997 0-3.616-1.515-3.616-3.385 0-1.869 1.619-3.384 3.616-3.384 1.996 0 3.615 1.515 3.615 3.384ZM-1.077 44c0 1.87-1.619 3.385-3.615 3.385-1.997 0-3.616-1.516-3.616-3.385 0-1.87 1.619-3.385 3.616-3.385 1.996 0 3.615 1.516 3.615 3.385ZM-1.077 64.308c0 1.869-1.619 3.384-3.615 3.384-1.997 0-3.616-1.515-3.616-3.384 0-1.87 1.619-3.385 3.616-3.385 1.996 0 3.615 1.515 3.615 3.385ZM-1.077 84.615c0 1.87-1.619 3.385-3.615 3.385-1.997 0-3.616-1.515-3.616-3.385 0-1.869 1.619-3.384 3.616-3.384 1.996 0 3.615 1.515 3.615 3.384ZM20.615 23.692c0 1.87-1.618 3.385-3.615 3.385s-3.615-1.515-3.615-3.385c0-1.869 1.618-3.384 3.615-3.384s3.615 1.515 3.615 3.384ZM20.615 44c0 1.87-1.618 3.385-3.615 3.385S13.385 45.869 13.385 44c0-1.87 1.618-3.385 3.615-3.385s3.615 1.516 3.615 3.385ZM20.615 64.308c0 1.869-1.618 3.384-3.615 3.384s-3.615-1.515-3.615-3.384c0-1.87 1.618-3.385 3.615-3.385s3.615 1.515 3.615 3.385ZM20.615 84.615C20.615 86.485 18.997 88 17 88s-3.615-1.515-3.615-3.385c0-1.869 1.618-3.384 3.615-3.384s3.615 1.515 3.615 3.384ZM42.308 3.385c0 1.869-1.619 3.384-3.616 3.384-1.996 0-3.615-1.515-3.615-3.384 0-1.87 1.619-3.385 3.615-3.385 1.997 0 3.616 1.515 3.616 3.385ZM42.308 23.692c0 1.87-1.619 3.385-3.616 3.385-1.996 0-3.615-1.515-3.615-3.385 0-1.869 1.619-3.384 3.615-3.384 1.997 0 3.616 1.515 3.616 3.384ZM42.308 44c0 1.87-1.619 3.385-3.616 3.385-1.996 0-3.615-1.516-3.615-3.385 0-1.87 1.619-3.385 3.615-3.385 1.997 0 3.616 1.516 3.616 3.385ZM42.308 64.308c0 1.869-1.619 3.384-3.616 3.384-1.996 0-3.615-1.515-3.615-3.384 0-1.87 1.619-3.385 3.615-3.385 1.997 0 3.616 1.515 3.616 3.385ZM42.308 84.615c0 1.87-1.619 3.385-3.616 3.385-1.996 0-3.615-1.515-3.615-3.385 0-1.869 1.619-3.384 3.615-3.384 1.997 0 3.616 1.515 3.616 3.384ZM64 3.385c0 1.869-1.619 3.384-3.615 3.384-1.997 0-3.616-1.515-3.616-3.384C56.77 1.515 58.388 0 60.385 0 62.38 0 64 1.515 64 3.385ZM64 23.692c0 1.87-1.619 3.385-3.615 3.385-1.997 0-3.616-1.515-3.616-3.385 0-1.869 1.619-3.384 3.616-3.384 1.996 0 3.615 1.515 3.615 3.384ZM64 44c0 1.87-1.619 3.385-3.615 3.385-1.997 0-3.616-1.516-3.616-3.385 0-1.87 1.619-3.385 3.616-3.385C62.38 40.615 64 42.131 64 44ZM64 64.308c0 1.869-1.619 3.384-3.615 3.384-1.997 0-3.616-1.515-3.616-3.384 0-1.87 1.619-3.385 3.616-3.385 1.996 0 3.615 1.515 3.615 3.385ZM64 84.615C64 86.485 62.381 88 60.385 88c-1.997 0-3.616-1.515-3.616-3.385 0-1.869 1.619-3.384 3.616-3.384 1.996 0 3.615 1.515 3.615 3.384Z" fill="#0F2D95"/></svg>