<svg width="24" height="24" fill="none" xmlns="http://www.w3.org/2000/svg"><path d="M7 16c.55 0 1 .45 1 1 0 1.1-.9 2-2 2-.17 0-.33-.02-.5-.05.31-.55.5-1.21.5-1.95 0-.55.45-1 1-1ZM18.67 3c-.26 0-.51.1-.71.29L9 12.25 11.75 15l8.96-8.96a.996.996 0 0 0 0-1.41l-1.34-1.34c-.2-.2-.45-.29-.7-.29ZM7 14c-1.66 0-3 1.34-3 3 0 1.31-1.16 2-2 2 .92 1.22 2.49 2 4 2 2.21 0 4-1.79 4-4 0-1.66-1.34-3-3-3Z" fill="url(#a)"/><defs><linearGradient id="a" x1="11.501" y1="3.36" x2="15.119" y2="19.846" gradientUnits="userSpaceOnUse"><stop stop-color="#5476F3"/><stop offset=".464" stop-color="#3459DF"/><stop offset="1" stop-color="#153CC6"/></linearGradient></defs></svg>