<svg width="43" height="57" viewBox="0 0 43 57" fill="none" xmlns="http://www.w3.org/2000/svg">
<path d="M0.318115 0.287842L4.12683 32.7845L21.217 36.406L38.3548 32.7712L42.1666 0.287842H0.318115ZM34.2541 7.73296L32.9863 18.5586L32.9901 18.6171L32.9848 18.7515V18.7504L32.084 26.3199L31.9848 26.9923L21.2423 29.2505L21.234 29.2562L10.5102 26.9854L9.78402 20.7272H15.0427L15.4158 23.9094L21.2439 25.1099L21.2423 25.1122L27.092 23.8942L27.7101 18.7121H15.4817L15.3768 17.8361L15.1378 15.7838L15.0124 14.6818H28.1749L28.6537 10.6515H8.60599L8.50107 9.77604L8.26243 7.72317L8.13667 6.62117H34.3795L34.2541 7.73296Z" fill="#081546"/>
<path d="M13.1379 43.382C13.8819 43.382 14.5059 43.478 15.0099 43.67C15.5259 43.862 16.0479 44.174 16.5759 44.606L15.6399 45.704C14.8839 45.092 14.0859 44.786 13.2459 44.786C12.2139 44.786 11.3799 45.182 10.7439 45.974C10.1199 46.766 9.80793 48.038 9.80793 49.79C9.80793 51.494 10.1199 52.754 10.7439 53.57C11.3679 54.374 12.1959 54.776 13.2279 54.776C13.7559 54.776 14.2179 54.686 14.6139 54.506C15.0099 54.326 15.4299 54.074 15.8739 53.75L16.7199 54.83C16.3359 55.226 15.8439 55.556 15.2439 55.82C14.6439 56.084 13.9539 56.216 13.1739 56.216C12.1659 56.216 11.2659 55.97 10.4739 55.478C9.69393 54.974 9.08193 54.242 8.63793 53.282C8.20593 52.31 7.98993 51.146 7.98993 49.79C7.98993 48.434 8.21793 47.276 8.67393 46.316C9.12993 45.344 9.74793 44.612 10.5279 44.12C11.3079 43.628 12.1779 43.382 13.1379 43.382Z" fill="#404040"/>
<path d="M21.7564 43.382C22.5844 43.382 23.2924 43.502 23.8804 43.742C24.4684 43.97 25.0384 44.33 25.5904 44.822L24.6544 45.866C24.1864 45.494 23.7244 45.224 23.2684 45.056C22.8244 44.876 22.3444 44.786 21.8284 44.786C21.1804 44.786 20.6464 44.936 20.2264 45.236C19.8064 45.536 19.5964 45.974 19.5964 46.55C19.5964 46.91 19.6684 47.216 19.8124 47.468C19.9564 47.708 20.2204 47.93 20.6044 48.134C21.0004 48.338 21.5704 48.554 22.3144 48.782C23.0944 49.022 23.7424 49.28 24.2584 49.556C24.7744 49.832 25.1884 50.216 25.5004 50.708C25.8244 51.188 25.9864 51.8 25.9864 52.544C25.9864 53.264 25.8064 53.9 25.4464 54.452C25.0984 55.004 24.5884 55.436 23.9164 55.748C23.2564 56.06 22.4704 56.216 21.5584 56.216C19.8424 56.216 18.4384 55.682 17.3464 54.614L18.2824 53.57C18.7864 53.978 19.2964 54.29 19.8124 54.506C20.3284 54.71 20.9044 54.812 21.5404 54.812C22.3084 54.812 22.9444 54.626 23.4484 54.254C23.9524 53.87 24.2044 53.318 24.2044 52.598C24.2044 52.19 24.1264 51.854 23.9704 51.59C23.8144 51.314 23.5444 51.068 23.1604 50.852C22.7884 50.636 22.2424 50.42 21.5224 50.204C20.2504 49.82 19.3204 49.358 18.7324 48.818C18.1444 48.278 17.8504 47.546 17.8504 46.622C17.8504 45.998 18.0124 45.44 18.3364 44.948C18.6724 44.456 19.1344 44.072 19.7224 43.796C20.3224 43.52 21.0004 43.382 21.7564 43.382Z" fill="#404040"/>
<path d="M31.3541 43.382C32.1821 43.382 32.8901 43.502 33.4781 43.742C34.0661 43.97 34.6361 44.33 35.1881 44.822L34.2521 45.866C33.7841 45.494 33.3221 45.224 32.8661 45.056C32.4221 44.876 31.9421 44.786 31.4261 44.786C30.7781 44.786 30.2441 44.936 29.8241 45.236C29.4041 45.536 29.1941 45.974 29.1941 46.55C29.1941 46.91 29.2661 47.216 29.4101 47.468C29.5541 47.708 29.8181 47.93 30.2021 48.134C30.5981 48.338 31.1681 48.554 31.9121 48.782C32.6921 49.022 33.3401 49.28 33.8561 49.556C34.3721 49.832 34.7861 50.216 35.0981 50.708C35.4221 51.188 35.5841 51.8 35.5841 52.544C35.5841 53.264 35.4041 53.9 35.0441 54.452C34.6961 55.004 34.1861 55.436 33.5141 55.748C32.8541 56.06 32.0681 56.216 31.1561 56.216C29.4401 56.216 28.0361 55.682 26.9441 54.614L27.8801 53.57C28.3841 53.978 28.8941 54.29 29.4101 54.506C29.9261 54.71 30.5021 54.812 31.1381 54.812C31.9061 54.812 32.5421 54.626 33.0461 54.254C33.5501 53.87 33.8021 53.318 33.8021 52.598C33.8021 52.19 33.7241 51.854 33.5681 51.59C33.4121 51.314 33.1421 51.068 32.7581 50.852C32.3861 50.636 31.8401 50.42 31.1201 50.204C29.8481 49.82 28.9181 49.358 28.3301 48.818C27.7421 48.278 27.4481 47.546 27.4481 46.622C27.4481 45.998 27.6101 45.44 27.9341 44.948C28.2701 44.456 28.7321 44.072 29.3201 43.796C29.9201 43.52 30.5981 43.382 31.3541 43.382Z" fill="#404040"/>
</svg>
