<svg width="81" height="81" fill="none" xmlns="http://www.w3.org/2000/svg"><path d="m18 15 4.005 29.052 17.968 3.238 18.02-3.25L62 15H18Zm35.68 6.656-1.332 9.678.004.052-.006.12-.947 6.767-.104.6L40 40.894l-.009.005-11.275-2.03-.763-5.595h5.529l.392 2.845 6.128 1.073-.002.002 6.15-1.089.65-4.633H33.943l-.11-.783-.251-1.835-.132-.985h13.839l.503-3.603H26.714l-.11-.782-.251-1.836-.133-.985h27.593l-.132.994Z" fill="#081546"/><path d="M31.479 53.526c.782 0 1.438.086 1.968.258.543.172 1.091.45 1.647.837l-.984.981c-.795-.547-1.634-.82-2.517-.82-1.086 0-1.962.354-2.631 1.062-.656.708-.984 1.845-.984 3.411 0 1.523.328 2.65.984 3.38.656.718 1.526 1.078 2.611 1.078.556 0 1.041-.08 1.458-.242a8.04 8.04 0 0 0 1.325-.676l.89.966c-.405.354-.922.649-1.553.885-.63.236-1.356.354-2.176.354-1.06 0-2.006-.22-2.839-.66-.82-.45-1.464-1.105-1.93-1.963-.455-.869-.682-1.91-.682-3.122s.24-2.247.72-3.106c.479-.869 1.129-1.523 1.949-1.963.82-.44 1.735-.66 2.744-.66ZM40.54 53.526c.871 0 1.616.108 2.234.322a6.185 6.185 0 0 1 1.798.966l-.985.933a5.616 5.616 0 0 0-1.457-.724 4.616 4.616 0 0 0-1.514-.242c-.681 0-1.243.135-1.684.403-.442.268-.663.66-.663 1.175 0 .321.076.595.228.82.151.215.428.413.832.596.417.182 1.016.375 1.798.579.82.215 1.502.445 2.044.692.543.247.978.59 1.306 1.03.34.429.511.976.511 1.641 0 .644-.19 1.212-.568 1.706-.366.493-.902.88-1.608 1.159-.694.279-1.52.418-2.48.418-1.804 0-3.28-.477-4.428-1.432l.984-.933a6.96 6.96 0 0 0 1.609.836 5.681 5.681 0 0 0 1.816.274c.808 0 1.477-.166 2.006-.499.53-.343.795-.837.795-1.48 0-.365-.082-.666-.246-.902-.164-.246-.448-.466-.851-.66-.391-.193-.966-.386-1.723-.579-1.337-.343-2.315-.756-2.933-1.239-.618-.483-.927-1.137-.927-1.963 0-.558.17-1.057.51-1.497.354-.44.84-.783 1.458-1.03.63-.246 1.344-.37 2.139-.37ZM50.632 53.526c.87 0 1.615.108 2.233.322a6.185 6.185 0 0 1 1.798.966l-.984.933a5.616 5.616 0 0 0-1.458-.724 4.616 4.616 0 0 0-1.514-.242c-.681 0-1.242.135-1.684.403-.442.268-.662.66-.662 1.175 0 .321.075.595.227.82.151.215.429.413.832.596.417.182 1.016.375 1.798.579.82.215 1.502.445 2.044.692.543.247.978.59 1.306 1.03.34.429.511.976.511 1.641 0 .644-.19 1.212-.568 1.706-.366.493-.902.88-1.608 1.159-.694.279-1.52.418-2.48.418-1.804 0-3.28-.477-4.428-1.432l.984-.933a6.96 6.96 0 0 0 1.609.836 5.681 5.681 0 0 0 1.816.274c.808 0 1.477-.166 2.007-.499.53-.343.794-.837.794-1.48 0-.365-.082-.666-.246-.902-.164-.246-.448-.466-.851-.66-.391-.193-.965-.386-1.722-.579-1.338-.343-2.316-.756-2.934-1.239-.618-.483-.927-1.137-.927-1.963 0-.558.17-1.057.51-1.497.354-.44.84-.783 1.458-1.03.63-.246 1.344-.37 2.139-.37Z" fill="#404040"/></svg>