<svg width="81" height="81" fill="none" xmlns="http://www.w3.org/2000/svg"><path d="m18 16 3.864 29.34L39.2 48.584l17.385-3.242L60.454 16H18Zm34.418 6.946-.242 1.877-.107.861H31.73l.486 3.665h19.369l-.13.908-1.249 9.454-.092.594-10.888 2.028-.013.006-10.881-1.943-.739-5.55h5.335l.378 2.857 5.903 1.068h.017v-.143l5.93-1.014.619-4.6h-18.42l-1.306-9.978-.127-1.016h26.622l-.127.926Z" fill="#081546"/><path d="M26.429 66v-5.245h-5.296V66H19.4V54.812h1.734v4.676h5.296v-4.676h1.734V66H26.43ZM39.241 54.812l-.182 1.315H35.57V66h-1.735v-9.873h-3.578v-1.315h8.983ZM52.134 66h-1.68l-.438-5.05c-.183-1.981-.286-3.502-.31-4.563l-2.721 8.346H45.36l-2.867-8.362c0 1.353-.08 2.917-.238 4.692L41.835 66h-1.643l1.04-11.188h2.338l2.648 8.135 2.52-8.135h2.355L52.133 66ZM56.833 54.812v9.84H62L61.8 66h-6.702V54.812h1.735Z" fill="#404040"/></svg>