<svg width="44" height="56" viewBox="0 0 44 56" fill="none" xmlns="http://www.w3.org/2000/svg">
<path d="M0.421143 0.575806L4.22981 33.0978L21.3206 36.6958L38.4587 33.1019L42.2711 0.575806H0.421143ZM34.3493 8.27568L34.1106 10.3565L34.0055 11.3108H13.9572L14.4357 15.3727H33.5289L33.401 16.3797L32.1703 26.8591L32.0797 27.5177L21.3461 29.7659L21.3332 29.7717L10.6069 27.6181L9.87866 21.4655H15.1377L15.5104 24.6335L21.3298 25.8175H21.3461V25.6591L27.1914 24.5348L27.802 19.4345H9.64454L8.35671 8.37549L8.23147 7.2489H34.4749L34.3493 8.27568Z" fill="#081546"/>
<path d="M8.72993 56V50.186H3.50993V56H1.79993V43.598H3.50993V48.782H8.72993V43.598H10.4399V56H8.72993Z" fill="#404040"/>
<path d="M21.3603 43.598L21.1803 45.056H17.7423V56H16.0323V45.056H12.5043V43.598H21.3603Z" fill="#404040"/>
<path d="M34.0696 56H32.4136L31.9816 50.402C31.8016 48.206 31.6996 46.52 31.6756 45.344L28.9936 54.596H27.3916L24.5656 45.326C24.5656 46.826 24.4876 48.56 24.3316 50.528L23.9176 56H22.2976L23.3236 43.598H25.6276L28.2376 52.616L30.7216 43.598H33.0436L34.0696 56Z" fill="#404040"/>
<path d="M38.7013 43.598V54.506H43.7953L43.5973 56H36.9913V43.598H38.7013Z" fill="#404040"/>
</svg>
