<svg width="81" height="81" fill="none" xmlns="http://www.w3.org/2000/svg"><path d="M24.902 15h30.294v30.294H24.902V15Zm7.96 25.312c.673 1.43 2.003 2.609 4.275 2.609 2.525 0 4.258-1.346 4.258-4.292v-9.727h-2.861v9.66c0 1.447-.589 1.818-1.515 1.818-.976 0-1.38-.674-1.834-1.465l-2.323 1.397Zm10.065-.303c.841 1.65 2.541 2.912 5.2 2.912 2.693 0 4.712-1.397 4.712-3.972 0-2.373-1.363-3.433-3.786-4.477l-.707-.303c-1.229-.521-1.75-.875-1.75-1.716 0-.69.521-1.229 1.363-1.229.808 0 1.346.354 1.834 1.229l2.205-1.465c-.926-1.615-2.238-2.238-4.04-2.238-2.54 0-4.173 1.616-4.173 3.753 0 2.323 1.363 3.417 3.417 4.292l.706.303c1.313.572 2.087.925 2.087 1.902 0 .807-.757 1.397-1.935 1.397-1.397 0-2.205-.724-2.81-1.734l-2.323 1.346Z" fill="#081546"/><path d="M9.98 60.257c0 .989-.217 1.73-.653 2.225-.427.494-1.081.882-1.963 1.163L7 62.64c.446-.174.78-.363 1.003-.567.223-.203.378-.45.466-.741.087-.291.13-.67.13-1.134v-8.565h1.382v8.623ZM17.901 59.864c0 .31.054.543.16.698a.996.996 0 0 0 .48.335l-.305.93c-.398-.048-.718-.16-.96-.334-.242-.175-.422-.446-.538-.815-.514.766-1.275 1.15-2.283 1.15-.756 0-1.352-.214-1.789-.64-.436-.427-.654-.985-.654-1.673 0-.814.291-1.44.873-1.876.59-.436 1.425-.654 2.5-.654h1.179v-.567c0-.543-.131-.93-.393-1.163-.262-.233-.664-.35-1.207-.35-.562 0-1.25.136-2.065.408l-.334-.974c.95-.35 1.832-.524 2.646-.524.902 0 1.575.223 2.021.669.446.436.67 1.061.67 1.876v3.504Zm-3.14.96c.765 0 1.366-.398 1.803-1.192v-1.76H15.56c-1.415 0-2.123.523-2.123 1.57 0 .456.112.8.335 1.033.223.233.552.349.988.349ZM26.063 53.99l-2.603 7.663h-1.614L19.2 53.99h1.454l2.007 6.47 1.992-6.47h1.41ZM32.528 59.864c0 .31.053.543.16.698a.995.995 0 0 0 .48.335l-.306.93c-.397-.048-.717-.16-.96-.334-.242-.175-.421-.446-.538-.815-.514.766-1.274 1.15-2.283 1.15-.756 0-1.352-.214-1.788-.64-.436-.427-.654-.985-.654-1.673 0-.814.29-1.44.872-1.876.591-.436 1.425-.654 2.501-.654h1.178v-.567c0-.543-.131-.93-.393-1.163-.262-.233-.664-.35-1.207-.35-.562 0-1.25.136-2.064.408l-.335-.974c.95-.35 1.832-.524 2.646-.524.902 0 1.576.223 2.022.669.446.436.669 1.061.669 1.876v3.504Zm-3.141.96c.766 0 1.367-.398 1.803-1.192v-1.76h-1.004c-1.415 0-2.122.523-2.122 1.57 0 .456.111.8.334 1.033.223.233.553.349.989.349ZM37.82 51.46c.669 0 1.24.096 1.716.29.475.184.935.475 1.381.873l-.756.843a4.098 4.098 0 0 0-1.12-.654 3.067 3.067 0 0 0-1.163-.218c-.523 0-.955.12-1.294.363-.34.242-.51.596-.51 1.062 0 .29.059.538.175.741.117.194.33.373.64.538.32.165.78.34 1.382.524.63.194 1.153.402 1.57.625.417.223.751.533 1.003.93.262.388.393.883.393 1.484 0 .582-.145 1.095-.436 1.541-.281.446-.693.795-1.236 1.047-.533.252-1.168.378-1.905.378-1.386 0-2.52-.431-3.403-1.294l.756-.843c.407.33.82.581 1.236.756.417.165.883.247 1.396.247.62 0 1.134-.15 1.542-.45.407-.311.61-.757.61-1.339 0-.33-.063-.6-.189-.814-.126-.223-.344-.422-.654-.596-.3-.175-.742-.349-1.323-.523-1.028-.31-1.78-.684-2.254-1.12-.475-.436-.713-1.028-.713-1.774 0-.504.131-.955.393-1.352a2.72 2.72 0 0 1 1.12-.931c.484-.223 1.032-.335 1.643-.335ZM45.99 53.815c.456 0 .873.068 1.251.204.378.126.742.334 1.09.625l-.639.843a3.047 3.047 0 0 0-.8-.421 2.334 2.334 0 0 0-.843-.146c-.62 0-1.105.247-1.454.742-.34.494-.51 1.226-.51 2.196 0 .969.17 1.686.51 2.152.34.455.824.683 1.454.683.3 0 .577-.044.829-.13.252-.098.533-.248.843-.452l.61.873c-.697.562-1.478.843-2.34.843-1.038 0-1.857-.349-2.458-1.047-.591-.698-.887-1.662-.887-2.893 0-.815.136-1.527.407-2.138.272-.61.655-1.086 1.15-1.425.503-.34 1.1-.509 1.788-.509ZM53.473 53.815c.271 0 .523.03.756.087l-.247 1.309a2.761 2.761 0 0 0-.67-.087c-.474 0-.857.174-1.148.523-.29.35-.519.892-.683 1.629v4.377h-1.338V53.99h1.149l.13 1.555c.204-.572.48-1.003.83-1.294a1.85 1.85 0 0 1 1.22-.436ZM57.09 53.99v7.663h-1.338V53.99h1.338Zm-.684-3.68c.281 0 .51.088.684.262a.888.888 0 0 1 .261.655c0 .262-.087.48-.261.654-.175.165-.403.247-.684.247a.935.935 0 0 1-.669-.247.888.888 0 0 1-.261-.654c0-.262.087-.48.261-.655a.906.906 0 0 1 .67-.261ZM63.375 53.815c.979 0 1.696.35 2.152 1.047.456.698.683 1.682.683 2.952 0 1.202-.261 2.171-.785 2.908-.523.737-1.265 1.105-2.225 1.105-.853 0-1.522-.29-2.006-.872v3.635l-1.338.16V53.99h1.149l.101 1.032c.282-.388.62-.683 1.018-.887.398-.213.814-.32 1.25-.32Zm-.495 6.922c1.26 0 1.89-.975 1.89-2.923 0-1.958-.576-2.937-1.73-2.937-.378 0-.722.111-1.032.334-.31.223-.582.509-.814.858v3.737c.194.3.436.533.727.698.29.155.61.233.96.233ZM72.358 61.304a2.943 2.943 0 0 1-1.716.523c-.65 0-1.159-.184-1.527-.552-.359-.378-.538-.921-.538-1.629v-4.624h-1.338V53.99h1.338v-1.73l1.338-.16v1.89h1.817l-.145 1.032h-1.672v4.566c0 .397.067.688.203.872.146.175.383.262.713.262.3 0 .64-.102 1.018-.305l.508.887Z" fill="#404040"/></svg>