<svg width="81" height="62" viewBox="0 0 81 62" fill="none" xmlns="http://www.w3.org/2000/svg">
<path d="M22.2501 0.25H59.7501V37.75H22.2501V0.25ZM32.1043 31.5833C32.9376 33.3542 34.5834 34.8125 37.3959 34.8125C40.5209 34.8125 42.6668 33.1458 42.6668 29.5V17.4583H39.1251V29.4167C39.1251 31.2083 38.3959 31.6667 37.2501 31.6667C36.0418 31.6667 35.5418 30.8333 34.9793 29.8542L32.1043 31.5833ZM44.5626 31.2083C45.6043 33.25 47.7084 34.8125 51.0001 34.8125C54.3334 34.8125 56.8334 33.0833 56.8334 29.8958C56.8334 26.9583 55.1459 25.6458 52.1459 24.3542L51.2709 23.9792C49.7501 23.3333 49.1043 22.8958 49.1043 21.8542C49.1043 21 49.7501 20.3333 50.7918 20.3333C51.7918 20.3333 52.4584 20.7708 53.0626 21.8542L55.7918 20.0417C54.6459 18.0417 53.0209 17.2708 50.7918 17.2708C47.6459 17.2708 45.6251 19.2708 45.6251 21.9167C45.6251 24.7917 47.3126 26.1458 49.8543 27.2292L50.7293 27.6042C52.3543 28.3125 53.3126 28.75 53.3126 29.9583C53.3126 30.9583 52.3751 31.6875 50.9168 31.6875C49.1876 31.6875 48.1876 30.7917 47.4376 29.5417L44.5626 31.2083Z" fill="#081546"/>
<path d="M3.78009 56.272C3.78009 57.496 3.51009 58.414 2.97009 59.026C2.44209 59.638 1.63209 60.118 0.540088 60.466L0.0900879 59.224C0.642088 59.008 1.05609 58.774 1.33209 58.522C1.60809 58.27 1.80009 57.964 1.90809 57.604C2.01609 57.244 2.07009 56.776 2.07009 56.2V45.598H3.78009V56.272Z" fill="#404040"/>
<path d="M13.5845 55.786C13.5845 56.17 13.6505 56.458 13.7825 56.65C13.9145 56.83 14.1125 56.968 14.3765 57.064L13.9985 58.216C13.5065 58.156 13.1105 58.018 12.8105 57.802C12.5105 57.586 12.2885 57.25 12.1445 56.794C11.5085 57.742 10.5665 58.216 9.31846 58.216C8.38246 58.216 7.64446 57.952 7.10446 57.424C6.56446 56.896 6.29446 56.206 6.29446 55.354C6.29446 54.346 6.65446 53.572 7.37446 53.032C8.10646 52.492 9.13846 52.222 10.4705 52.222H11.9285V51.52C11.9285 50.848 11.7665 50.368 11.4425 50.08C11.1185 49.792 10.6205 49.648 9.94846 49.648C9.25246 49.648 8.40046 49.816 7.39246 50.152L6.97846 48.946C8.15446 48.514 9.24646 48.298 10.2545 48.298C11.3705 48.298 12.2045 48.574 12.7565 49.126C13.3085 49.666 13.5845 50.44 13.5845 51.448V55.786ZM9.69646 56.974C10.6445 56.974 11.3885 56.482 11.9285 55.498V53.32H10.6865C8.93446 53.32 8.05846 53.968 8.05846 55.264C8.05846 55.828 8.19646 56.254 8.47246 56.542C8.74846 56.83 9.15646 56.974 9.69646 56.974Z" fill="#404040"/>
<path d="M23.6878 48.514L20.4658 58H18.4678L15.1918 48.514H16.9918L19.4758 56.524L21.9418 48.514H23.6878Z" fill="#404040"/>
<path d="M31.6899 55.786C31.6899 56.17 31.7559 56.458 31.8879 56.65C32.0199 56.83 32.2179 56.968 32.4819 57.064L32.1039 58.216C31.6119 58.156 31.2159 58.018 30.9159 57.802C30.6159 57.586 30.3939 57.25 30.2499 56.794C29.6139 57.742 28.6719 58.216 27.4239 58.216C26.4879 58.216 25.7499 57.952 25.2099 57.424C24.6699 56.896 24.3999 56.206 24.3999 55.354C24.3999 54.346 24.7599 53.572 25.4799 53.032C26.2119 52.492 27.2439 52.222 28.5759 52.222H30.0339V51.52C30.0339 50.848 29.8719 50.368 29.5479 50.08C29.2239 49.792 28.7259 49.648 28.0539 49.648C27.3579 49.648 26.5059 49.816 25.4979 50.152L25.0839 48.946C26.2599 48.514 27.3519 48.298 28.3599 48.298C29.4759 48.298 30.3099 48.574 30.8619 49.126C31.4139 49.666 31.6899 50.44 31.6899 51.448V55.786ZM27.8019 56.974C28.7499 56.974 29.4939 56.482 30.0339 55.498V53.32H28.7919C27.0399 53.32 26.1639 53.968 26.1639 55.264C26.1639 55.828 26.3019 56.254 26.5779 56.542C26.8539 56.83 27.2619 56.974 27.8019 56.974Z" fill="#404040"/>
<path d="M38.2409 45.382C39.0689 45.382 39.7769 45.502 40.3649 45.742C40.9529 45.97 41.5229 46.33 42.0749 46.822L41.1389 47.866C40.6709 47.494 40.2089 47.224 39.7529 47.056C39.3089 46.876 38.8289 46.786 38.3129 46.786C37.6649 46.786 37.1309 46.936 36.7109 47.236C36.2909 47.536 36.0809 47.974 36.0809 48.55C36.0809 48.91 36.1529 49.216 36.2969 49.468C36.4409 49.708 36.7049 49.93 37.0889 50.134C37.4849 50.338 38.0549 50.554 38.7989 50.782C39.5789 51.022 40.2269 51.28 40.7429 51.556C41.2589 51.832 41.6729 52.216 41.9849 52.708C42.3089 53.188 42.4709 53.8 42.4709 54.544C42.4709 55.264 42.2909 55.9 41.9309 56.452C41.5829 57.004 41.0729 57.436 40.4009 57.748C39.7409 58.06 38.9549 58.216 38.0429 58.216C36.3269 58.216 34.9229 57.682 33.8309 56.614L34.7669 55.57C35.2709 55.978 35.7809 56.29 36.2969 56.506C36.8129 56.71 37.3889 56.812 38.0249 56.812C38.7929 56.812 39.4289 56.626 39.9329 56.254C40.4369 55.87 40.6889 55.318 40.6889 54.598C40.6889 54.19 40.6109 53.854 40.4549 53.59C40.2989 53.314 40.0289 53.068 39.6449 52.852C39.2729 52.636 38.7269 52.42 38.0069 52.204C36.7349 51.82 35.8049 51.358 35.2169 50.818C34.6289 50.278 34.3349 49.546 34.3349 48.622C34.3349 47.998 34.4969 47.44 34.8209 46.948C35.1569 46.456 35.6189 46.072 36.2069 45.796C36.8069 45.52 37.4849 45.382 38.2409 45.382Z" fill="#404040"/>
<path d="M48.3555 48.298C48.9195 48.298 49.4355 48.382 49.9035 48.55C50.3715 48.706 50.8215 48.964 51.2535 49.324L50.4615 50.368C50.1255 50.128 49.7955 49.954 49.4715 49.846C49.1595 49.726 48.8115 49.666 48.4275 49.666C47.6595 49.666 47.0595 49.972 46.6275 50.584C46.2075 51.196 45.9975 52.102 45.9975 53.302C45.9975 54.502 46.2075 55.39 46.6275 55.966C47.0475 56.53 47.6475 56.812 48.4275 56.812C48.7995 56.812 49.1415 56.758 49.4535 56.65C49.7655 56.53 50.1135 56.344 50.4975 56.092L51.2535 57.172C50.3895 57.868 49.4235 58.216 48.3555 58.216C47.0715 58.216 46.0575 57.784 45.3135 56.92C44.5815 56.056 44.2155 54.862 44.2155 53.338C44.2155 52.33 44.3835 51.448 44.7195 50.692C45.0555 49.936 45.5295 49.348 46.1415 48.928C46.7655 48.508 47.5035 48.298 48.3555 48.298Z" fill="#404040"/>
<path d="M57.6172 48.298C57.9532 48.298 58.2652 48.334 58.5532 48.406L58.2472 50.026C57.9592 49.954 57.6832 49.918 57.4192 49.918C56.8312 49.918 56.3572 50.134 55.9972 50.566C55.6372 50.998 55.3552 51.67 55.1512 52.582V58H53.4952V48.514H54.9172L55.0792 50.44C55.3312 49.732 55.6732 49.198 56.1052 48.838C56.5372 48.478 57.0412 48.298 57.6172 48.298Z" fill="#404040"/>
<path d="M62.0946 48.514V58H60.4386V48.514H62.0946ZM61.2486 43.96C61.5966 43.96 61.8786 44.068 62.0946 44.284C62.3106 44.5 62.4186 44.77 62.4186 45.094C62.4186 45.418 62.3106 45.688 62.0946 45.904C61.8786 46.108 61.5966 46.21 61.2486 46.21C60.9126 46.21 60.6366 46.108 60.4206 45.904C60.2046 45.688 60.0966 45.418 60.0966 45.094C60.0966 44.77 60.2046 44.5 60.4206 44.284C60.6366 44.068 60.9126 43.96 61.2486 43.96Z" fill="#404040"/>
<path d="M69.8747 48.298C71.0867 48.298 71.9747 48.73 72.5387 49.594C73.1027 50.458 73.3847 51.676 73.3847 53.248C73.3847 54.736 73.0607 55.936 72.4127 56.848C71.7647 57.76 70.8467 58.216 69.6587 58.216C68.6027 58.216 67.7747 57.856 67.1747 57.136V61.636L65.5187 61.834V48.514H66.9407L67.0667 49.792C67.4147 49.312 67.8347 48.946 68.3267 48.694C68.8187 48.43 69.3347 48.298 69.8747 48.298ZM69.2627 56.866C70.8227 56.866 71.6027 55.66 71.6027 53.248C71.6027 50.824 70.8887 49.612 69.4607 49.612C68.9927 49.612 68.5667 49.75 68.1827 50.026C67.7987 50.302 67.4627 50.656 67.1747 51.088V55.714C67.4147 56.086 67.7147 56.374 68.0747 56.578C68.4347 56.77 68.8307 56.866 69.2627 56.866Z" fill="#404040"/>
<path d="M80.9942 57.568C80.3702 58 79.6622 58.216 78.8702 58.216C78.0662 58.216 77.4362 57.988 76.9802 57.532C76.5362 57.064 76.3142 56.392 76.3142 55.516V49.792H74.6582V48.514H76.3142V46.372L77.9702 46.174V48.514H80.2202L80.0402 49.792H77.9702V55.444C77.9702 55.936 78.0542 56.296 78.2222 56.524C78.4022 56.74 78.6962 56.848 79.1042 56.848C79.4762 56.848 79.8962 56.722 80.3642 56.47L80.9942 57.568Z" fill="#404040"/>
</svg>
