<svg width="231" height="29" fill="none" xmlns="http://www.w3.org/2000/svg"><path d="M15.848 21.196h2.232V28H.62v-1.908l3.42-.792-.468.756V4.852l.468.756-3.42-.72V2.98l9.936-.18v1.908l-3.744.9.432-.756v21.06l-.612-.612h9.072l-.576.648.72-4.752ZM27.118 28.36c-1.584 0-2.904-.504-3.96-1.512-1.032-1.008-1.548-2.544-1.548-4.608V11.08l.396.576-3.096-.72V9.028l6.3-.216v12.816c0 1.344.3 2.34.9 2.988.624.648 1.452.972 2.484.972.816 0 1.692-.216 2.628-.648.96-.456 1.896-1.14 2.808-2.052l-.252.72v-12.6l.396.648-3.096-.72V9.028l6.3-.252v17.172l-.504-.612 3.168.72v1.908l-5.472.252-.504-3.564.504.18c-1.176 1.2-2.424 2.088-3.744 2.664-1.296.576-2.532.864-3.708.864ZM50.663 28.36c-1.56 0-2.976-.384-4.248-1.152-1.272-.768-2.28-1.872-3.024-3.312-.72-1.44-1.08-3.18-1.08-5.22 0-1.8.252-3.336.756-4.608.528-1.272 1.224-2.316 2.088-3.132a8.514 8.514 0 0 1 2.988-1.8A10.444 10.444 0 0 1 51.6 8.56c1.032 0 2.1.144 3.204.432 1.128.264 2.088.6 2.88 1.008l-.144 4.788h-2.376l-.504-3.24.324.288a6.058 6.058 0 0 0-1.692-.504 11.225 11.225 0 0 0-1.692-.144c-1.176 0-2.184.3-3.024.9-.816.576-1.44 1.416-1.872 2.52-.432 1.08-.648 2.364-.648 3.852 0 1.536.228 2.844.684 3.924.48 1.08 1.128 1.896 1.944 2.448.816.528 1.752.792 2.808.792.816 0 1.692-.168 2.628-.504.936-.336 1.908-.852 2.916-1.548l1.26 1.908c-1.296.984-2.58 1.716-3.852 2.196-1.272.456-2.532.684-3.78.684ZM75.254 26.056l-.54-.756 3.24.756v1.908l-5.471.252-.505-3.456.288.108c-1.032 1.176-2.148 2.052-3.348 2.628-1.2.576-2.364.864-3.492.864-1.392 0-2.592-.456-3.6-1.368-.983-.912-1.476-2.28-1.476-4.104 0-1.392.3-2.472.9-3.24.6-.792 1.44-1.356 2.52-1.692 1.08-.336 2.352-.504 3.816-.504h4.392l-.323.396v-3.096c0-1.248-.325-2.136-.972-2.664-.649-.552-1.549-.828-2.7-.828-.6 0-1.237.06-1.909.18-.647.12-1.355.312-2.123.576l.503-.504-.395 3.204h-2.377l-.288-4.788c1.465-.456 2.809-.792 4.033-1.008 1.247-.24 2.4-.36 3.455-.36 2.016 0 3.576.444 4.68 1.332 1.129.888 1.692 2.292 1.692 4.212v11.952Zm-11.268-3.42c0 1.032.253 1.8.757 2.304.504.48 1.14.72 1.907.72.768 0 1.608-.24 2.52-.72a12.748 12.748 0 0 0 2.7-1.98l-.216.9v-4.464l.325.36h-3.817c-1.584 0-2.675.24-3.276.72-.6.48-.9 1.2-.9 2.16ZM84.103 13.6c0 .696.24 1.248.72 1.656.48.384 1.104.708 1.872.972s1.584.528 2.448.792c.888.264 1.716.6 2.484 1.008.768.408 1.392.96 1.872 1.656.504.672.756 1.56.756 2.664 0 1.296-.36 2.388-1.08 3.276-.696.888-1.656 1.572-2.88 2.052-1.224.456-2.592.684-4.104.684a19.42 19.42 0 0 1-2.808-.216 24.4 24.4 0 0 1-3.024-.648l.252-5.076h2.268l.396 3.42-.36-.432c.528.144 1.092.264 1.692.36a14.89 14.89 0 0 0 1.692.108c.744 0 1.44-.108 2.088-.324.672-.216 1.212-.54 1.62-.972a2.32 2.32 0 0 0 .648-1.656c0-.72-.252-1.284-.756-1.692-.48-.432-1.104-.78-1.872-1.044a74.626 74.626 0 0 0-2.448-.792c-.84-.264-1.644-.6-2.412-1.008a5.336 5.336 0 0 1-1.872-1.62c-.48-.672-.72-1.572-.72-2.7 0-1.272.324-2.316.972-3.132.648-.816 1.512-1.416 2.592-1.8a10.24 10.24 0 0 1 3.456-.576c.84 0 1.764.084 2.772.252a23.24 23.24 0 0 1 3.168.756l-.18 4.356H91.05l-.54-2.916.504.576c-1.2-.36-2.304-.54-3.312-.54-1.056 0-1.92.228-2.592.684-.672.456-1.008 1.08-1.008 1.872ZM104.366 28v-1.908l3.456-.792-.504.756V4.852l.684.792-3.636-.756V2.98l6.768-.18h3.96c2.784 0 4.884.576 6.3 1.728 1.416 1.152 2.124 2.82 2.124 5.004 0 1.968-.624 3.588-1.872 4.86-1.224 1.272-3.12 2.052-5.688 2.34V16.3c.936.072 1.692.264 2.268.576.6.288 1.104.696 1.512 1.224.408.504.792 1.128 1.152 1.872l2.988 5.94-1.116-.72 3.132.9V28h-4.932l-3.276-7.056c-.456-.984-.876-1.74-1.26-2.268-.384-.552-.852-.936-1.404-1.152-.552-.216-1.356-.324-2.412-.324l-2.268.036.648-.576v9.396l-.54-.792 3.996.828V28h-10.08Zm6.624-12.456-.648-.936h3.276c1.992 0 3.504-.408 4.536-1.224 1.056-.816 1.584-2.028 1.584-3.636 0-1.368-.432-2.412-1.296-3.132-.84-.744-2.1-1.116-3.78-1.116h-4.32l.648-.648v10.692ZM133.684 25.804l-.324-.432 3.024.72V28h-8.964v-1.908l3.024-.72-.36.432V11.296l.324.324-2.988-.684V9.028l6.264-.216v16.992Zm-1.98-20.52c-.648 0-1.188-.204-1.62-.612-.408-.408-.612-.984-.612-1.728 0-.768.216-1.344.648-1.728.432-.408.972-.612 1.62-.612.672 0 1.212.204 1.62.612.432.384.648.96.648 1.728s-.228 1.356-.684 1.764c-.432.384-.972.576-1.62.576ZM146.305 28.36c-.888 0-1.836-.06-2.844-.18-1.008-.12-2.088-.3-3.24-.54V2.08l.648 1.008-3.312-.792V.388l6.264-.252V11.98l-.468-.54c.96-.912 1.968-1.62 3.024-2.124 1.08-.504 2.172-.756 3.276-.756 1.368 0 2.58.372 3.636 1.116 1.056.744 1.896 1.824 2.52 3.24.624 1.416.936 3.168.936 5.256 0 1.536-.192 2.94-.576 4.212-.384 1.248-.996 2.316-1.836 3.204-.816.888-1.896 1.572-3.24 2.052-1.32.48-2.916.72-4.788.72Zm.648-2.628c1.992 0 3.492-.624 4.5-1.872 1.032-1.248 1.548-3.048 1.548-5.4 0-1.512-.204-2.796-.612-3.852-.384-1.08-.924-1.908-1.62-2.484-.696-.576-1.512-.864-2.448-.864-.768 0-1.572.204-2.412.612-.816.408-1.656 1.032-2.52 1.872l.432-1.224v13.644l-.468-.936c1.368.336 2.568.504 3.6.504ZM168.194 28.36c-1.656 0-3.12-.36-4.392-1.08-1.248-.744-2.232-1.824-2.952-3.24-.696-1.44-1.044-3.192-1.044-5.256 0-2.112.36-3.924 1.08-5.436.744-1.536 1.788-2.712 3.132-3.528 1.368-.84 2.964-1.26 4.788-1.26 1.752 0 3.18.36 4.284 1.08 1.128.72 1.956 1.716 2.484 2.988.552 1.248.828 2.676.828 4.284 0 .312-.012.624-.036.936-.024.312-.06.672-.108 1.08h-13.644v-2.484h10.404l-.324.216c.024-.984-.096-1.884-.36-2.7-.264-.816-.708-1.464-1.332-1.944-.624-.504-1.452-.756-2.484-.756-1.128 0-2.064.312-2.808.936-.744.6-1.296 1.428-1.656 2.484-.36 1.056-.54 2.268-.54 3.636 0 1.464.204 2.748.612 3.852.408 1.08 1.02 1.932 1.836 2.556.84.6 1.872.9 3.096.9.864 0 1.8-.168 2.808-.504 1.032-.336 2.088-.84 3.168-1.512l1.26 1.98c-1.344.936-2.712 1.632-4.104 2.088-1.368.456-2.7.684-3.996.684ZM185.469 25.804l-.324-.432 3.024.72V28h-8.964v-1.908l3.024-.72-.36.432V11.296l.324.324-2.988-.684V9.028l6.264-.216v16.992Zm-1.98-20.52c-.648 0-1.188-.204-1.62-.612-.408-.408-.612-.984-.612-1.728 0-.768.216-1.344.648-1.728.432-.408.972-.612 1.62-.612.672 0 1.212.204 1.62.612.432.384.648.96.648 1.728s-.228 1.356-.684 1.764c-.432.384-.972.576-1.62.576ZM190.174 28v-1.908l3.096-.72-.432.612v-14.94l.468.648-3.132-.756V9.028l5.472-.252.468 3.492-.468-.144c1.08-1.128 2.136-2.004 3.168-2.628a6.542 6.542 0 0 1 3.384-.936c.768 0 1.584.12 2.448.36l-.252 5.724h-2.196l-.468-3.816.396.756a3.582 3.582 0 0 0-.54-.108 3.56 3.56 0 0 0-.504-.036c-.888 0-1.764.276-2.628.828-.84.528-1.62 1.212-2.34 2.052l.324-1.044v12.708l-.468-.612 3.816.72V28h-9.612ZM215.003 8.56c2.688 0 4.8.84 6.336 2.52 1.536 1.656 2.304 4.008 2.304 7.056 0 2.064-.372 3.864-1.116 5.4-.744 1.536-1.812 2.724-3.204 3.564-1.368.84-3.024 1.26-4.968 1.26-2.664 0-4.74-.816-6.228-2.448-1.488-1.656-2.232-4.008-2.232-7.056 0-2.136.36-3.972 1.08-5.508.72-1.536 1.752-2.712 3.096-3.528 1.368-.84 3.012-1.26 4.932-1.26Zm-.18 2.628c-1.704 0-3 .648-3.888 1.944-.864 1.272-1.296 3.12-1.296 5.544 0 2.376.42 4.152 1.26 5.328.84 1.152 2.064 1.728 3.672 1.728 1.176 0 2.148-.288 2.916-.864.792-.576 1.38-1.416 1.764-2.52.408-1.128.612-2.472.612-4.032 0-2.376-.432-4.152-1.296-5.328-.864-1.2-2.112-1.8-3.744-1.8ZM226.255 26.056c0-.672.216-1.2.648-1.584.456-.408.972-.612 1.548-.612.696 0 1.236.204 1.62.612.408.384.612.912.612 1.584s-.228 1.212-.684 1.62a2.251 2.251 0 0 1-1.548.576c-.672 0-1.212-.192-1.62-.576-.384-.408-.576-.948-.576-1.62Z" fill="#fff"/></svg>